<svg height="404pt" viewBox="0 -73 404.28163 404" width="404pt" xmlns="http://www.w3.org/2000/svg"><path d="m275.148438 25.988281c-.304688-.101562-.613282-.148437-.921876-.203125-11.144531-15.527344-29.1875-25.644531-49.535156-25.644531h-45.105468c-20.347657 0-38.402344 10.121094-49.542969 25.652344-.332031.058593-.664063.113281-.992188.222656-136.792969 45.40625-129.0390622 223.222656-128.945312 225.015625.132812 2.542969 1.671875 4.800781 4 5.855469.898437.410156 1.863281.609375 2.816406.609375 1.503906 0 2.996094-.496094 4.21875-1.460938 32.695313-25.6875 60.234375-54.082031 82.054687-84.558594 8.609376 25.46875 31.378907 44.433594 58.609376 47.179688 18.21875 1.828125 36.222656-3.628906 50.335937-15.089844 12.320313 10 27.605469 15.4375 43.40625 15.4375 2.300781 0 4.617187-.113281 6.929687-.347656 27.230469-2.746094 50-21.710938 58.609376-47.175781 21.824218 30.472656 49.363281 58.871093 82.054687 84.554687 1.226563.960938 2.714844 1.460938 4.21875 1.460938.957031 0 1.917969-.203125 2.820313-.609375 2.320312-1.054688 3.863281-3.3125 3.996093-5.859375.09375-1.789063 7.84375-179.671875-129.027343-225.039063zm-261.363282 210.335938c1.289063-39.730469 13.414063-152.863281 107.386719-192.738281-1.832031 5.890624-2.828125 12.152343-2.828125 18.648437v28.558594c0 .734375-.597656 1.261719-.855469 1.457031-18.9375 14.292969-29.164062 36.621094-27.882812 60.34375-19.765625 30.019531-45.222657 58.132812-75.820313 83.730469zm287.003906-81.167969c-2.867187 26.3125-23.757812 47.304688-49.675781 49.914062-16.339843 1.621094-32.417969-4.015624-44.203125-15.519531-1.324218-1.296875-3.046875-1.945312-4.769531-1.945312-1.71875 0-3.441406.648437-4.769531 1.945312-11.785156 11.503907-27.863282 17.15625-44.199219 15.519531-25.921875-2.609374-46.8125-23.601562-49.679687-49.914062-2.222657-20.386719 6.082031-39.828125 22.222656-52.007812 3.996094-3.011719 6.285156-7.515626 6.285156-12.355469v-28.554688c0-26.714843 21.351562-48.445312 47.589844-48.445312h45.109375c26.238281 0 47.589843 21.730469 47.589843 48.445312v28.503907c0 4.871093 2.304688 9.402343 6.320313 12.433593 16.105469 12.179688 24.402344 31.609375 22.179687 51.980469zm13.886719-2.558594c1.28125-23.703125-8.929687-46.019531-27.84375-60.3125-.269531-.203125-.894531-.765625-.894531-1.542968v-28.503907c0-6.496093-.992188-12.761719-2.824219-18.652343 93.964844 39.875 106.089844 153.003906 107.386719 192.738281-30.597656-25.59375-56.054688-53.707031-75.824219-83.726563zm0 0"/><path d="m250.71875 87.960938c-5.144531 0-9.3125 5.75-9.3125 12.84375 0 7.089843 4.167969 12.839843 9.3125 12.839843 5.140625 0 9.308594-5.75 9.308594-12.839843 0-7.09375-4.167969-12.84375-9.308594-12.84375zm0 0"/><path d="m148.316406 87.960938c-5.140625 0-9.3125 5.75-9.3125 12.84375 0 7.089843 4.171875 12.839843 9.3125 12.839843 5.144532 0 9.3125-5.75 9.3125-12.839843 0-7.09375-4.167968-12.84375-9.3125-12.84375zm0 0"/><path d="m210.296875 138.746094c-3.863281 3.988281-7.527344 6.007812-10.890625 6.007812-.015625 0-.035156 0-.054688 0-3.300781-.023437-6.851562-2.019531-10.550781-5.941406-2.59375-2.746094-6.914062-2.863281-9.652343-.273438-2.742188 2.589844-2.867188 6.910157-.273438 9.648438 4.035156 4.273438 8.273438 7.207031 12.660156 8.800781v13.820313c0 3.769531 3.058594 6.824218 6.828125 6.824218s6.828125-3.054687 6.828125-6.824218v-13.167969c5.144532-1.34375 10.140625-4.472656 14.90625-9.386719 2.625-2.710937 2.558594-7.03125-.148437-9.652344-2.703125-2.628906-7.03125-2.558593-9.652344.144532zm0 0"/></svg>