<?xml version="1.0" encoding="utf-8"?>
<!-- Generator: Adobe Illustrator 25.2.0, SVG Export Plug-In . SVG Version: 6.00 Build 0)  -->
<svg version="1.0" id="Layer_1" xmlns="http://www.w3.org/2000/svg" xmlns:xlink="http://www.w3.org/1999/xlink" x="0px" y="0px"
	 viewBox="0 0 595.28 595.28" style="enable-background:new 0 0 595.28 595.28;" xml:space="preserve">
<g>
	<g>
		<path d="M54.04,32.19c-25.16,40.93-23.44,95.82,6.09,134.1c31.43,40.75,83.35,56.87,130.98,69.71
			c28.08,7.57,56.5,14.49,83.35,25.84c22.47,9.5,43.55,22.13,62.75,37.17c38.65,30.28,69.56,69.84,92.8,112.91
			c12.48,23.13,22.61,47.74,27.54,73.64c2.6,13.68,3.73,27.65,3.11,41.56c-0.54,12.01-2.04,24.45-7.34,35.4
			c-2.63,5.43-6.25,10.27-10.95,14.07c-1.27,1.03,1.61,1,2.31,0.43c8.98-7.26,13.84-18.01,16.33-29.06
			c2.8-12.46,3.15-25.62,2.48-38.34c-1.42-26.86-9.08-52.97-20.1-77.39c-20.09-44.52-49.47-86.11-85.52-119.12
			c-17.63-16.14-37.12-30.28-58.16-41.64c-23.84-12.87-49.49-21.37-75.51-28.59c-50.31-13.97-105.59-24.58-145.6-60.75
			c-17.8-16.09-30.57-36.54-36.08-59.96c-5.64-23.97-3.89-49.59,5.35-72.45c2.46-6.08,5.45-11.91,8.88-17.5
			C57.41,31.1,54.52,31.4,54.04,32.19L54.04,32.19z"/>
	</g>
</g>
<g>
	<g>
		<path d="M497.19,79.52c-7.51,14.78-15.93,29.08-25.23,42.8c-9.21,13.58-19.27,26.59-30.11,38.91
			c-6.18,7.02-12.6,13.81-19.27,20.37c-0.6,0.59,0.2,1.21,0.82,0.82c20.67-12.95,42.38-24.23,64.87-33.68
			c11.22-4.71,22.62-8.96,34.19-12.73c2.66-0.87,5.52-1.49,8.07-2.62c2.32-1.02,2.72-3.09,1.71-5.29c-1.27-2.76-2.91-5.39-4.37-8.05
			c-1.5-2.74-3-5.49-4.52-8.22c-3.38-6.1-6.88-12.14-10.8-17.91c-4.01-5.9-8.58-11.35-13.23-16.75c-0.46-0.53-1.83,0.07-1.32,0.66
			c4.04,4.7,8.06,9.41,11.64,14.47c3.49,4.93,6.64,10.09,9.64,15.33c2.96,5.16,5.78,10.4,8.64,15.62c0.77,1.4,1.54,2.8,2.3,4.21
			c0.8,1.46,1.99,3.6,0.12,4.8c-1.03,0.66-2.46,0.89-3.62,1.25c-1.45,0.45-2.89,0.92-4.34,1.39c-22.33,7.27-44.09,16.31-65.02,26.98
			c-11.83,6.03-23.38,12.59-34.63,19.64c0.27,0.27,0.55,0.55,0.82,0.82c11.77-11.57,22.81-23.87,33.03-36.83
			c10.3-13.07,19.76-26.8,28.33-41.07c4.85-8.07,9.41-16.32,13.67-24.71C498.96,78.97,497.5,78.91,497.19,79.52L497.19,79.52z"/>
	</g>
</g>
<g>
	<g>
		<path d="M15.83,473.9c16.04-9.47,31.93-19.19,47.79-28.97c35.19-21.71,70.08-43.92,104.44-66.93
			c35.66-23.89,71.16-48.42,104.18-75.89c43.55-36.23,84.47-75.95,121.73-118.62c38.63-44.23,73.43-92.12,101.17-143.96
			c3.43-6.4,6.73-12.87,9.93-19.39c-0.96,0.2-1.93,0.4-2.89,0.61c4.26,19.52,9.59,39.09,18.97,56.84
			c8.52,16.11,20.42,29.9,34.29,41.64c9.6,8.13,19.95,15.32,30.54,22.09c0.4-0.37,0.8-0.74,1.2-1.12
			c-18.75,6.12-37.57,12.04-56.39,17.95c-9.82,3.08-19.66,6.07-29.26,9.78c-9.16,3.55-18.03,7.72-26.9,11.93
			c-31.02,14.71-62.44,29.22-91.34,47.85c-19.43,12.53-38.41,25.73-57.43,38.86c-19.68,13.59-39.59,26.86-59.25,40.48
			c-39.14,27.09-77.74,54.95-116.98,81.89c-39.1,26.84-78.86,52.8-120.26,75.97c-5.06,2.83-10.15,5.62-15.27,8.37
			C12.39,474.19,15.01,474.33,15.83,473.9c41.15-22.12,80.66-47.15,119.36-73.3c39.15-26.45,77.51-54.03,116.22-81.11
			c19.45-13.61,39.1-26.91,58.72-40.28c19.1-13.01,37.97-26.34,57.17-39.2c15.29-10.25,30.64-20.22,46.92-28.81
			c16.16-8.54,32.6-16.56,49.08-24.48c18.26-8.78,36.46-17.56,55.84-23.65c18.57-5.84,37.14-11.64,55.68-17.59
			c4.23-1.36,8.47-2.73,12.69-4.11c0.11-0.04,1.84-0.71,1.2-1.12c-17.37-11.11-34.32-23.45-47.93-39.08
			c-11.89-13.67-20.38-29.63-26.31-46.69c-3.92-11.27-6.84-22.87-9.38-34.52c-0.21-0.94-2.63,0.07-2.89,0.61
			c-26.02,53.02-59.67,102.04-97.48,147.3c-37.3,44.65-78.72,85.82-122.78,123.79c-32.42,27.94-67.26,52.88-102.63,76.93
			c-35.25,23.97-71.14,47-107.35,69.49c-18.89,11.73-37.89,23.28-56.98,34.68c-0.29,0.17-0.58,0.34-0.87,0.51
			C12.43,474.26,15.02,474.37,15.83,473.9L15.83,473.9z"/>
	</g>
</g>
<g>
	<path d="M288.87,135.53c2.16-4.37,8.6-5.87,12.46-2.89c2.07,1.6,3.29,4.13,3.7,6.72c0.83,5.22-1.76,10.96-6.47,13.35
		s-11.21,0.85-13.95-3.68s-0.76-11.35,4.15-13.32"/>
	<g>
		<path d="M289.58,135.41c1.93-3.75,6.82-5.16,10.45-2.94c4.07,2.49,5.13,8.13,3.97,12.45c-1.15,4.3-4.58,8.29-9.25,8.58
			c-4.14,0.26-8.58-2.03-10.08-6.03c-1.54-4.09,0.1-9.78,4.35-11.57c0.94-0.4,0.06-0.6-0.51-0.37c-4.28,1.8-6.64,6.57-5.64,11.11
			c1.07,4.86,6.01,7.59,10.73,7.49c5.12-0.1,9.56-3.33,11.39-8.09c1.85-4.8,0.96-11.73-4.03-14.33c-4.3-2.24-10.57-0.4-12.81,3.94
			C288.03,135.88,289.39,135.79,289.58,135.41L289.58,135.41z"/>
	</g>
</g>
<g>
	<path d="M150.93,287.45c5.02-0.77,10.39,1.78,12.97,6.16c2.58,4.38,2.2,10.31-0.91,14.33c-1.08,1.4-2.49,2.59-4.16,3.16
		c-3.56,1.22-7.51-0.57-10.28-3.11c-3.63-3.33-6.01-8.52-4.58-13.23c1.43-4.71,7.68-7.74,11.67-4.85"/>
	<g>
		<path d="M150.83,287.84c4.63-0.64,9.44,1.59,12.03,5.47c2.63,3.93,2.68,9.42,0.26,13.46c-1.37,2.28-3.56,4.3-6.35,4.33
			c-2.62,0.03-5.17-1.35-7.12-3.01c-3.46-2.96-6.08-7.72-5.21-12.39c0.84-4.51,6.23-8.47,10.52-5.51c0.41,0.28,1.72-0.3,1.35-0.56
			c-3.74-2.58-8.98-0.82-11.63,2.53c-3.58,4.5-1.49,10.9,1.93,14.81c3.6,4.11,9.74,6.73,14.67,3.28c4.61-3.23,6.17-9.76,4.26-14.92
			c-2.15-5.82-8.48-9.09-14.5-8.26C150.36,287.16,149.82,287.97,150.83,287.84L150.83,287.84z"/>
	</g>
</g>
<g>
	<path d="M476.38,280.51c1.58-1.23,3.81,0.48,4.68,2.28c1.7,3.53,1.44,7.92-0.66,11.23c-2.1,3.31-5.96,5.41-9.88,5.38
		c-1.31-0.01-2.67-0.27-3.72-1.07c-1.55-1.19-2.06-3.28-2.35-5.21c-0.67-4.48-0.61-9.36,1.91-13.13c2.52-3.76,8.19-5.64,11.75-2.84"
		/>
	<g>
		<path d="M476.85,280.77c0.91-0.61,2.08,0.37,2.67,1.03c0.73,0.81,1.15,1.81,1.46,2.84c0.58,1.96,0.62,4.05,0.14,6.03
			c-0.97,4.05-4.27,7.26-8.37,8.08c-2.08,0.42-4.64,0.3-6.05-1.5c-1.17-1.49-1.43-3.56-1.64-5.38c-0.47-3.96-0.32-8.41,2.01-11.82
			c2.26-3.31,7.06-5.08,10.5-2.51c0.43,0.32,1.75-0.3,1.14-0.76c-3.43-2.57-8.32-1.36-11.34,1.28c-3.86,3.38-4.31,9.05-3.8,13.83
			c0.25,2.35,0.61,5.17,2.59,6.74c1.77,1.41,4.37,1.41,6.5,1.02c4.81-0.89,8.89-4.48,9.97-9.31c0.6-2.65,0.34-5.74-1.02-8.13
			c-1.14-1.99-3.55-3.41-5.67-1.98C475.11,280.79,476.33,281.12,476.85,280.77L476.85,280.77z"/>
	</g>
</g>
<g>
	<path d="M297.07,402.93c-5.17,0.21-10.15,3.16-12.84,7.58c-1.64,2.7-2.39,6.27-0.77,8.99c0.83,1.38,2.17,2.37,3.6,3.1
		c4.35,2.21,9.8,2.07,14.04-0.34c2.2-1.25,4.14-3.21,4.72-5.68c0.85-3.62-1.56-7.42-4.85-9.17c-3.28-1.75-7.2-1.83-10.89-1.41"/>
	<g>
		<path d="M297.12,402.37c-5.09,0.27-10,2.87-12.95,7.06c-1.46,2.08-2.49,4.61-2.33,7.18c0.15,2.56,1.63,4.6,3.77,5.92
			c4.42,2.73,10.22,2.88,14.88,0.68c4.47-2.11,7.77-6.75,5.42-11.66c-2.85-5.94-9.93-6.75-15.76-6.11
			c-0.83,0.09-1.09,1.24-0.11,1.13c4.67-0.51,10.13-0.25,13.33,3.7c1.36,1.68,2.2,3.87,1.79,6.05c-0.4,2.14-1.93,3.87-3.69,5.06
			c-3.86,2.61-9.12,2.91-13.34,1.02c-2.13-0.95-4.07-2.48-4.64-4.84c-0.54-2.25,0.15-4.67,1.27-6.64c2.49-4.36,7.29-7.16,12.26-7.42
			C297.86,403.45,298.11,402.31,297.12,402.37L297.12,402.37z"/>
	</g>
</g>
</svg>
