<?xml version="1.0" encoding="utf-8"?>
<!-- Generator: Adobe Illustrator 25.2.1, SVG Export Plug-In . SVG Version: 6.00 Build 0)  -->
<svg version="1.1" id="Layer_1" xmlns="http://www.w3.org/2000/svg" xmlns:xlink="http://www.w3.org/1999/xlink" x="0px" y="0px"
	 viewBox="0 0 276.56 120" style="enable-background:new 0 0 276.56 120;" xml:space="preserve">
<style type="text/css">
	.st0{fill:#020203;}
</style>
<g id="LogoHorae_x5F_Thick_1_">
	<g>
		<g>
			<path class="st0" d="M9.04,4.52c-4.18,6.79-5.1,15.37-2.22,22.84C9.66,34.73,16,39.83,22.95,43.13c3.85,1.82,7.9,3.13,11.99,4.3
				c2.18,0.63,4.38,1.2,6.58,1.79c1.11,0.3,2.23,0.6,3.34,0.91c0.54,0.15,1.08,0.3,1.61,0.46c0.27,0.08,0.53,0.16,0.8,0.23
				c0.13,0.04,0.27,0.08,0.4,0.12c0.44,0.13-0.18-0.06,0.1,0.03c4.06,1.25,8.02,2.73,11.77,4.72c0.82,0.44,1.63,0.9,2.43,1.37
				c0.4,0.24,0.8,0.48,1.19,0.73c0.2,0.12,0.39,0.25,0.59,0.38c0.1,0.06,0.19,0.13,0.29,0.19c0.32,0.21-0.12-0.08,0.07,0.05
				c1.56,1.06,3.08,2.18,4.54,3.37c5.96,4.86,10.98,10.79,15.11,17.26c0.51,0.8,1.01,1.61,1.49,2.43c-0.08-0.13-0.15-0.26-0.23-0.39
				c3.56,6.03,6.52,12.53,7.62,19.49c0.32,2.05,0.48,4.12,0.46,6.2c0-0.15,0-0.3,0-0.45c-0.03,2.12-0.18,4.29-0.74,6.34
				c-0.13,0.46-0.27,0.91-0.45,1.36c-0.09,0.23-0.19,0.46-0.29,0.69c-0.09,0.19-0.08,0.14,0.01-0.02c-0.06,0.1-0.1,0.2-0.16,0.29
				c-0.24,0.43-0.52,0.85-0.84,1.24c-0.05,0.06-0.19,0.18-0.21,0.25c0.03-0.1,0.34-0.33,0.09-0.1c-0.21,0.19-0.41,0.38-0.63,0.56
				c-0.36,0.29-0.8,0.87-0.67,1.38c0.14,0.52,0.81,0.78,1.27,0.86c1.59,0.27,3.42-0.24,4.67-1.25c3.61-2.92,4.44-7.68,4.54-12.07
				c0.11-4.76-0.65-9.45-2.15-13.97c-1.41-4.24-3.39-8.27-5.64-12.12c-2.19-3.76-4.63-7.37-7.38-10.74
				c-5.34-6.55-11.82-12.16-19.25-16.2c-8.64-4.7-18.34-6.5-27.67-9.28c-0.13-0.04-0.27-0.08-0.4-0.12c0.47,0.14,0.02,0.01-0.1-0.03
				c-0.3-0.09-0.6-0.19-0.9-0.28c-0.53-0.17-1.06-0.34-1.59-0.52c-1.02-0.35-2.03-0.72-3.03-1.11c-1.99-0.79-3.94-1.68-5.81-2.71
				c-0.9-0.5-1.78-1.03-2.64-1.59c-0.29-0.19,0.39,0.27-0.07-0.05c-0.1-0.07-0.19-0.13-0.29-0.2c-0.19-0.13-0.38-0.27-0.57-0.41
				c-0.45-0.33-0.88-0.66-1.31-1.01c-1.6-1.3-3.07-2.77-4.35-4.4c-0.63-0.8-1.2-1.64-1.72-2.51c0.08,0.13,0.15,0.26,0.23,0.39
				c-2.25-3.84-3.33-8.28-3.28-12.72c0,0.15,0,0.3,0,0.45c0.04-2.13,0.33-4.26,0.9-6.32c0.29-1.03,0.64-2.03,1.05-3.02
				c0.11-0.25,0.22-0.51,0.34-0.76c0.02-0.04,0.23-0.48,0.13-0.27c-0.09,0.18,0.08-0.15,0.1-0.18c0.28-0.53,0.58-1.05,0.89-1.56
				c0.27-0.43,0.39-0.9,0.01-1.31c-0.39-0.42-1.25-0.54-1.77-0.54c-0.88,0.01-1.79,0.17-2.59,0.52C10.19,3.55,9.41,3.91,9.04,4.52
				L9.04,4.52z"/>
		</g>
	</g>
	<g>
		<g>
			<path class="st0" d="M101.11,15.63c-0.78,1.52-1.6,3.02-2.46,4.5c-0.11,0.18-0.22,0.36-0.32,0.54c-0.05,0.09-0.11,0.18-0.16,0.27
				c-0.04,0.07-0.25,0.4-0.06,0.1c-0.23,0.36-0.44,0.72-0.67,1.08c-0.45,0.71-0.92,1.42-1.39,2.12c-1.91,2.81-3.99,5.51-6.24,8.06
				c-0.63,0.72-1.28,1.43-1.94,2.13c-0.32,0.34-0.64,0.67-0.97,1.01c-0.17,0.17-0.34,0.34-0.51,0.51c-0.08,0.08-0.17,0.17-0.25,0.25
				c-0.03,0.03-0.06,0.06-0.1,0.1c-0.23,0.23,0.23-0.23,0,0c-0.23,0.22-0.5,0.49-0.51,0.84c-0.01,0.27,0.07,0.5,0.27,0.7
				c0.46,0.47,1.39,0.51,1.94,0.16c4.28-2.68,8.78-5.02,13.44-6.98c0.58-0.24,1.16-0.48,1.75-0.71c0.26-0.1,0.53-0.21,0.79-0.31
				c0.15-0.06,0.29-0.11,0.44-0.17c0.04-0.01,0.34-0.13,0.07-0.03c-0.28,0.1,0.11-0.04,0.16-0.06c1.16-0.43,2.34-0.84,3.52-1.23
				c0.67-0.22,1.38-0.39,2.02-0.68c0.91-0.4,1.51-1.36,1.09-2.32c-0.29-0.66-0.68-1.29-1.03-1.92c-0.31-0.57-0.62-1.14-0.94-1.7
				c-0.7-1.26-1.43-2.52-2.24-3.71c-0.83-1.22-1.78-2.35-2.74-3.47c-0.49-0.57-1.4-0.63-2.05-0.28c-0.51,0.28-1.2,1.04-0.69,1.64
				c1.07,1.24,2.11,2.5,3.01,3.87c0.89,1.36,1.68,2.78,2.46,4.2c0.45,0.82,0.92,1.62,1.34,2.46c-0.04-0.09-0.09-0.19-0.13-0.28
				c0.06,0.14,0.11,0.27,0.12,0.42c-0.01-0.1-0.02-0.21-0.02-0.31c0,0.07-0.04,0.12,0.01,0.01c0.07-0.14,0.19-0.35,0.32-0.45
				c-0.01,0.01,0.32-0.16,0.18-0.11c-0.02,0.01-0.08,0.03-0.1,0.05c0.01-0.01,0.41-0.14,0.18-0.07c-0.05,0.01-0.09,0.03-0.13,0.04
				c-0.11,0.03-0.21,0.07-0.31,0.1c-0.39,0.12-0.78,0.25-1.17,0.38c-0.76,0.25-1.52,0.51-2.28,0.78c-1.64,0.59-3.27,1.22-4.88,1.89
				c-3,1.25-5.93,2.66-8.78,4.23c-1.62,0.89-3.22,1.83-4.79,2.81c0.57,0.57,1.13,1.14,1.7,1.71c2.52-2.47,4.89-5.09,7.07-7.86
				c2.2-2.79,4.2-5.72,6.03-8.77c1.01-1.67,1.95-3.38,2.83-5.12c0.34-0.67-0.31-1.29-0.94-1.37
				C102.29,14.59,101.47,14.92,101.11,15.63L101.11,15.63z"/>
		</g>
	</g>
	<g>
		<g>
			<path class="st0" d="M5.71,96.73c3.32-1.96,6.62-3.98,9.9-6c7.48-4.61,14.9-9.33,22.2-14.22c7.39-4.95,14.75-10.03,21.59-15.73
				c9.16-7.62,17.79-15.97,25.63-24.95c8.1-9.28,15.37-19.33,21.19-30.2c0.71-1.33,1.39-2.67,2.06-4.02
				c-2.19,0.46-4.39,0.92-6.58,1.38c0.88,4.04,1.99,8.1,3.93,11.78c1.82,3.44,4.34,6.41,7.3,8.92c1.99,1.68,4.13,3.17,6.33,4.58
				c0.91-0.85,1.82-1.7,2.73-2.54c-3.89,1.27-7.79,2.49-11.69,3.72c-2.3,0.72-4.6,1.42-6.85,2.29c-2.13,0.82-4.19,1.81-6.26,2.79
				c-6.64,3.15-13.3,6.28-19.49,10.27c-4.03,2.6-7.96,5.33-11.9,8.05c-4.08,2.82-8.2,5.57-12.28,8.39
				c-8.11,5.61-16.11,11.39-24.24,16.97c-4.02,2.76-8.08,5.48-12.2,8.1c-0.12,0.08-0.25,0.16-0.37,0.24
				c-0.08,0.05-0.48,0.3-0.16,0.1c0.32-0.2-0.08,0.05-0.16,0.1c-0.12,0.08-0.25,0.16-0.37,0.23c-0.56,0.35-1.12,0.7-1.68,1.05
				c-1.03,0.64-2.06,1.26-3.09,1.89c-2.1,1.26-4.21,2.49-6.34,3.68c-1.05,0.59-2.1,1.16-3.16,1.73c-0.42,0.22-1.16,0.69-1.3,1.2
				c-0.13,0.46,0.19,0.8,0.61,0.94C2.49,97.95,4.42,97.42,5.71,96.73c8.72-4.69,17.09-10,25.29-15.54
				c8.11-5.48,16.06-11.2,24.08-16.81c4.03-2.82,8.1-5.58,12.17-8.35c3.96-2.7,7.87-5.46,11.85-8.12c1.01-0.67,2.01-1.34,3.03-2
				c0.51-0.33,1.02-0.66,1.53-0.98c0.13-0.08,0.26-0.17,0.39-0.25c0.07-0.05,0.49-0.31,0.18-0.12c-0.26,0.16,0.16-0.1,0.24-0.15
				c1.24-0.76,2.52-1.45,3.8-2.12c3.35-1.77,6.76-3.43,10.17-5.07c1.49-0.71,2.98-1.42,4.47-2.13c0.11-0.05,0.22-0.1,0.32-0.15
				c-0.08,0.04-0.66,0.3-0.14,0.06c0.28-0.12,0.55-0.24,0.82-0.36c0.59-0.25,1.17-0.5,1.77-0.73c0.56-0.22,1.12-0.43,1.68-0.63
				c0.28-0.1,0.57-0.2,0.85-0.29c0.13-0.04,0.59-0.24,0.1-0.04c-0.53,0.22,0.09-0.02,0.21-0.06c3.85-1.21,7.7-2.41,11.54-3.65
				c0.88-0.28,1.76-0.57,2.63-0.85c0.89-0.29,1.75-0.58,2.45-1.22c0.31-0.28,0.84-0.96,0.28-1.32c-4.62-2.96-9.07-6.36-12.13-10.99
				c0.07,0.11,0.14,0.22,0.21,0.32c-2.75-4.21-4.16-9.09-5.22-13.96c-0.1-0.47-0.86-0.64-1.22-0.68c-0.67-0.07-1.34,0-2,0.14
				c-1.19,0.25-2.79,0.75-3.37,1.93C96.38,13.47,89.56,23.4,81.74,32.76c-3.9,4.67-8.02,9.16-12.32,13.47
				c-2.11,2.12-4.26,4.19-6.46,6.23c-0.25,0.23-0.49,0.46-0.74,0.69c0.39-0.36-0.1,0.09-0.15,0.14c-0.1,0.09-0.2,0.18-0.3,0.27
				c-0.59,0.54-1.19,1.08-1.79,1.61c-1.09,0.97-2.18,1.93-3.28,2.88C49.98,63.83,42.76,69,35.43,73.98
				c-3.85,2.62-7.73,5.18-11.65,7.7c-0.93,0.6-1.86,1.2-2.8,1.79c-0.44,0.28-0.87,0.55-1.3,0.83c-0.22,0.14-0.45,0.28-0.67,0.43
				c0.84-0.53-0.04,0.02-0.24,0.15c-1.67,1.06-3.35,2.11-5.03,3.15c-3.91,2.43-7.85,4.83-11.81,7.19c-0.06,0.04-0.12,0.07-0.18,0.11
				c-0.42,0.25-1.15,0.67-1.3,1.2c-0.13,0.46,0.19,0.8,0.61,0.94C2.45,97.94,4.48,97.45,5.71,96.73L5.71,96.73z"/>
		</g>
	</g>
	<g>
		<path class="st0" d="M60.49,25.97c0.45-0.91,1.78-1.22,2.58-0.6c0.43,0.33,0.68,0.86,0.77,1.39c0.17,1.08-0.36,2.27-1.34,2.77
			c-0.98,0.5-2.32,0.18-2.89-0.76c-0.57-0.94-0.16-2.35,0.86-2.76"/>
		<g>
			<path class="st0" d="M63.75,25.41c0.04-0.08,0.08-0.15,0.13-0.22c-0.09,0.12-0.17,0.24-0.26,0.35c0.08-0.11,0.18-0.21,0.28-0.29
				c-0.15,0.12-0.3,0.24-0.46,0.36c0.08-0.06,0.17-0.12,0.26-0.17c-0.21,0.12-0.41,0.23-0.62,0.35c0.06-0.03,0.12-0.06,0.19-0.09
				c-0.25,0.11-0.51,0.22-0.76,0.32c0.05-0.02,0.1-0.04,0.15-0.05c-0.29,0.09-0.58,0.18-0.87,0.28c0.05-0.01,0.1-0.03,0.15-0.04
				c-0.3,0.06-0.59,0.13-0.89,0.19c0.07-0.01,0.14-0.03,0.21-0.04c-0.27,0.03-0.54,0.07-0.82,0.1c0.07-0.01,0.14-0.01,0.21-0.01
				c-0.24,0-0.48,0-0.71,0.01c0.1,0,0.21,0.01,0.31,0.02c-0.19-0.03-0.38-0.06-0.58-0.08c0.14,0.02,0.27,0.06,0.39,0.11
				c-0.13-0.06-0.27-0.12-0.4-0.18c0.27,0.12,0.49,0.31,0.67,0.56c-0.07-0.09-0.13-0.17-0.2-0.26c0.36,0.51,0.48,1.13,0.42,1.74
				c0.01-0.11,0.03-0.22,0.04-0.33c-0.06,0.48-0.23,0.93-0.51,1.32c0.09-0.12,0.17-0.24,0.26-0.35c-0.13,0.18-0.28,0.33-0.45,0.47
				c0.15-0.12,0.3-0.24,0.46-0.36c-0.09,0.07-0.19,0.14-0.29,0.2c0.21-0.12,0.41-0.23,0.62-0.35c-0.07,0.04-0.13,0.07-0.21,0.1
				c0.25-0.11,0.51-0.22,0.76-0.32c-0.07,0.03-0.14,0.06-0.21,0.08c0.29-0.09,0.58-0.18,0.87-0.28c-0.07,0.02-0.14,0.04-0.22,0.06
				c0.3-0.06,0.59-0.13,0.89-0.19c-0.07,0.01-0.15,0.03-0.22,0.04c0.27-0.03,0.54-0.07,0.82-0.1c-0.07,0.01-0.15,0.01-0.22,0.01
				c0.24,0,0.48,0,0.71-0.01c-0.13,0-0.26-0.01-0.39-0.02c0.19,0.03,0.38,0.06,0.58,0.08c-0.2-0.03-0.4-0.09-0.59-0.16
				c0.13,0.06,0.27,0.12,0.4,0.18c-0.34-0.15-0.63-0.37-0.86-0.67c0.07,0.09,0.13,0.17,0.2,0.26c-0.28-0.4-0.39-0.87-0.33-1.36
				c-0.01,0.11-0.03,0.22-0.04,0.33c0.05-0.35,0.17-0.68,0.38-0.97c-0.09,0.12-0.17,0.24-0.26,0.35c0.09-0.12,0.2-0.24,0.32-0.34
				c-0.15,0.12-0.3,0.24-0.46,0.36c0.07-0.05,0.14-0.1,0.21-0.15c-0.21,0.12-0.41,0.23-0.62,0.35c0.05-0.02,0.09-0.05,0.14-0.07
				c-0.25,0.11-0.51,0.22-0.76,0.32c0.02-0.01,0.03-0.01,0.05-0.02c0.6-0.25,1.37-0.54,1.84-1.04c0.24-0.25,0.49-0.67,0.1-0.94
				c-0.13-0.06-0.27-0.12-0.4-0.18c-0.42-0.09-0.86-0.12-1.29-0.08c-0.86,0.07-1.77,0.23-2.58,0.57c-1.15,0.48-2.39,1.06-2.99,2.23
				c-0.11,0.22-0.18,0.46-0.21,0.7c-0.05,0.34-0.08,0.67-0.01,1.01c0.05,0.24,0.16,0.47,0.3,0.67c0.21,0.29,0.42,0.55,0.71,0.75
				c0.9,0.58,1.97,0.66,3.01,0.63c0.78-0.02,1.62-0.18,2.36-0.4c0.98-0.29,1.97-0.64,2.81-1.23c0.69-0.48,1.34-1.12,1.65-1.92
				c0.23-0.59,0.31-1.31,0.16-1.93c-0.07-0.3-0.19-0.58-0.37-0.83c-0.21-0.3-0.44-0.6-0.77-0.77c-0.53-0.28-1.05-0.4-1.65-0.44
				c-1.03-0.06-2.08,0.11-3.06,0.38c-0.98,0.27-2.02,0.64-2.85,1.25c-0.48,0.35-0.9,0.73-1.18,1.26c-0.22,0.42,0.25,0.67,0.56,0.76
				c0.31,0.08,0.62,0.1,0.93,0.08c0.4,0.01,0.79-0.02,1.18-0.1c0.86-0.16,1.74-0.39,2.52-0.79C62.91,26.22,63.49,25.93,63.75,25.41
				L63.75,25.41z"/>
		</g>
	</g>
	<g>
		<path class="st0" d="M31.9,57.45c1.04-0.16,2.15,0.37,2.69,1.28s0.46,2.14-0.19,2.97c-0.22,0.29-0.52,0.54-0.86,0.65
			c-0.74,0.25-1.56-0.12-2.13-0.64c-0.75-0.69-1.25-1.77-0.95-2.74c0.3-0.98,1.59-1.6,2.42-1.01"/>
		<g>
			<path class="st0" d="M31.43,59.2c0.07-0.01,0.14-0.02,0.21-0.02c-0.28,0.02-0.55,0.04-0.83,0.05c0.12-0.01,0.24,0,0.36,0
				c-0.24-0.02-0.49-0.04-0.73-0.07c0.19,0.02,0.38,0.05,0.56,0.1c-0.2-0.06-0.4-0.12-0.6-0.18c0.25,0.08,0.49,0.19,0.71,0.33
				c-0.15-0.1-0.29-0.19-0.43-0.28c0.34,0.23,0.63,0.51,0.84,0.86c-0.08-0.13-0.15-0.25-0.23-0.38c0.24,0.43,0.36,0.91,0.35,1.4
				c0-0.15,0-0.3,0.01-0.45c-0.01,0.4-0.1,0.77-0.27,1.13c0.08-0.15,0.16-0.31,0.23-0.46c-0.11,0.23-0.25,0.43-0.42,0.61
				c0.14-0.15,0.29-0.3,0.43-0.45c-0.09,0.1-0.19,0.18-0.29,0.26c0.2-0.14,0.4-0.28,0.6-0.42c-0.09,0.06-0.17,0.11-0.27,0.16
				c0.25-0.12,0.5-0.25,0.75-0.37c-0.05,0.02-0.1,0.04-0.15,0.06c0.29-0.1,0.58-0.19,0.86-0.29c-0.07,0.02-0.15,0.04-0.22,0.06
				c0.3-0.06,0.59-0.12,0.89-0.18c-0.05,0.01-0.1,0.01-0.15,0.02c0.28-0.02,0.55-0.04,0.83-0.05c-0.1,0.01-0.2,0-0.3,0
				c0.24,0.02,0.49,0.04,0.73,0.07c-0.13-0.02-0.25-0.04-0.38-0.08c0.2,0.06,0.4,0.12,0.6,0.18c-0.23-0.07-0.44-0.18-0.64-0.3
				c0.15,0.1,0.29,0.19,0.43,0.28c-0.43-0.28-0.79-0.66-1.06-1.09c0.08,0.13,0.15,0.25,0.23,0.38c-0.25-0.43-0.41-0.9-0.42-1.4
				c0,0.15,0,0.3-0.01,0.45c0.01-0.28,0.06-0.55,0.18-0.81c-0.08,0.15-0.16,0.31-0.23,0.46c0.08-0.17,0.19-0.31,0.32-0.45
				c-0.14,0.15-0.29,0.3-0.43,0.45c0.09-0.09,0.18-0.17,0.28-0.24c-0.2,0.14-0.4,0.28-0.6,0.42c0.08-0.06,0.17-0.11,0.27-0.15
				c-0.25,0.12-0.5,0.25-0.75,0.37c0.07-0.03,0.15-0.06,0.23-0.09c-0.29,0.1-0.58,0.19-0.86,0.29c0.06-0.02,0.11-0.03,0.17-0.05
				c-0.3,0.06-0.59,0.12-0.89,0.18c0.08-0.01,0.16-0.02,0.23-0.03c-0.28,0.02-0.55,0.04-0.83,0.05c0.08,0,0.16,0,0.23,0
				c-0.24-0.02-0.49-0.04-0.73-0.07c0.08,0.01,0.15,0.02,0.23,0.05c-0.2-0.06-0.4-0.12-0.6-0.18c0.11,0.04,0.22,0.08,0.32,0.15
				c-0.15-0.1-0.29-0.19-0.43-0.28c0.02,0.01,0.03,0.02,0.05,0.04c0.21,0.2,0.46,0.32,0.73,0.37c0.33,0.12,0.68,0.17,1.03,0.15
				c0.84,0.01,1.82-0.19,2.59-0.52c0.63-0.28,1.41-0.64,1.78-1.25c0.22-0.36,0.47-0.98,0.01-1.29c-0.53-0.36-0.92-0.57-1.57-0.68
				c-1-0.18-2.07-0.06-3.04,0.2c-1.38,0.38-2.75,1.05-3.65,2.19c-0.53,0.67-0.7,1.49-0.59,2.32c0.09,0.73,0.51,1.45,0.99,1.99
				c0.64,0.73,1.52,1.16,2.45,1.39c0.74,0.18,1.57,0.15,2.32,0.05c1.09-0.15,2.22-0.51,3.14-1.11c0.99-0.65,1.85-1.52,2.16-2.69
				c0.18-0.66,0.17-1.46-0.06-2.11c-0.85-2.28-3.55-2.83-5.7-2.53c-0.85,0.12-1.76,0.4-2.5,0.84c-0.32,0.16-0.59,0.38-0.82,0.65
				c-0.22,0.18-0.36,0.41-0.45,0.69c0,0.15,0,0.3-0.01,0.45c0.12,0.32,0.34,0.54,0.66,0.67C29.94,59.29,30.72,59.29,31.43,59.2
				L31.43,59.2z"/>
		</g>
	</g>
	<g>
		<path class="st0" d="M99.35,56.01c0.33-0.25,0.79,0.1,0.97,0.47c0.35,0.73,0.3,1.64-0.14,2.33c-0.44,0.69-1.24,1.12-2.05,1.11
			c-0.27,0-0.55-0.06-0.77-0.22c-0.32-0.25-0.43-0.68-0.49-1.08c-0.14-0.93-0.13-1.94,0.4-2.72c0.52-0.78,1.7-1.17,2.43-0.59"/>
		<g>
			<path class="st0" d="M101.46,57.22c0.02-0.01,0.03-0.02,0.05-0.03c-0.25,0.13-0.49,0.27-0.74,0.4c0.02-0.01,0.04-0.02,0.05-0.02
				c-0.29,0.1-0.57,0.2-0.86,0.3c0.02-0.01,0.04-0.01,0.05-0.02c-0.3,0.06-0.6,0.11-0.9,0.17c0.04-0.01,0.07-0.01,0.11-0.01
				c-0.28,0.01-0.56,0.01-0.84,0.02c0.02,0,0.04,0,0.06,0.01c-0.25-0.04-0.5-0.08-0.75-0.12c0.04,0.01,0.07,0.02,0.11,0.03
				c-0.21-0.08-0.41-0.17-0.62-0.25c0.08,0.03,0.15,0.07,0.21,0.12c-0.15-0.12-0.3-0.25-0.46-0.37c0.12,0.1,0.22,0.21,0.3,0.35
				c-0.08-0.16-0.17-0.32-0.25-0.48c0.16,0.3,0.24,0.64,0.26,0.98c-0.01-0.18-0.01-0.36-0.02-0.54c0.01,0.35-0.04,0.68-0.17,1.01
				c0.07-0.18,0.14-0.36,0.21-0.55c-0.08,0.2-0.19,0.39-0.32,0.56c0.14-0.18,0.28-0.35,0.41-0.53c-0.12,0.15-0.24,0.28-0.39,0.4
				c0.2-0.16,0.39-0.32,0.59-0.48c-0.11,0.09-0.22,0.16-0.34,0.23c0.25-0.13,0.49-0.27,0.74-0.4c-0.12,0.07-0.25,0.12-0.38,0.17
				c0.29-0.1,0.57-0.2,0.86-0.3c-0.13,0.05-0.27,0.08-0.4,0.11c0.3-0.06,0.6-0.11,0.9-0.17c-0.11,0.02-0.23,0.03-0.35,0.04
				c0.28-0.01,0.56-0.01,0.84-0.02c-0.12,0-0.24-0.01-0.37-0.02c0.25,0.04,0.5,0.08,0.75,0.12c-0.1-0.02-0.19-0.05-0.28-0.08
				c0.21,0.08,0.41,0.17,0.62,0.25c-0.07-0.03-0.13-0.07-0.19-0.11c0.15,0.12,0.3,0.25,0.46,0.37c-0.12-0.1-0.21-0.22-0.29-0.36
				c0.08,0.16,0.17,0.32,0.25,0.48c-0.21-0.45-0.25-0.98-0.27-1.47c0.01,0.18,0.01,0.36,0.02,0.54c-0.01-0.5,0.03-0.99,0.2-1.45
				c-0.07,0.18-0.14,0.36-0.21,0.55c0.09-0.22,0.19-0.43,0.34-0.62c-0.14,0.18-0.28,0.35-0.41,0.53c0.09-0.11,0.19-0.22,0.3-0.31
				c-0.2,0.16-0.39,0.32-0.59,0.48c0.1-0.08,0.2-0.15,0.31-0.21c-0.25,0.13-0.49,0.27-0.74,0.4c0.11-0.06,0.22-0.11,0.34-0.15
				c-0.29,0.1-0.57,0.2-0.86,0.3c0.08-0.02,0.16-0.05,0.24-0.06c-0.3,0.06-0.6,0.11-0.9,0.17c0.1-0.02,0.2-0.03,0.3-0.04
				c-0.28,0.01-0.56,0.01-0.84,0.02c0.1,0,0.19,0.01,0.29,0.02c-0.25-0.04-0.5-0.08-0.75-0.12c0.1,0.02,0.19,0.04,0.28,0.08
				c-0.21-0.08-0.41-0.17-0.62-0.25c0.11,0.05,0.21,0.11,0.31,0.18c0.31,0.18,0.64,0.28,0.99,0.31c0.4,0.09,0.8,0.1,1.21,0.04
				c0.46-0.04,0.9-0.14,1.33-0.32c0.42-0.12,0.81-0.31,1.17-0.56c0.5-0.36,1.15-0.89,1.21-1.55c-0.01-0.18-0.01-0.36-0.02-0.54
				c-0.12-0.38-0.36-0.66-0.71-0.85c-0.33-0.25-0.75-0.4-1.15-0.5c-0.7-0.17-1.47-0.21-2.18-0.11c-1.53,0.22-2.92,0.79-4.07,1.83
				c-0.67,0.6-1.11,1.45-1.32,2.31c-0.16,0.68-0.12,1.41-0.04,2.1c0.07,0.66,0.26,1.39,0.78,1.85c0.48,0.43,0.65,0.5,1.27,0.73
				c0.34,0.12,0.7,0.16,1.07,0.21c0.82,0.1,1.62-0.04,2.41-0.2c0.14-0.03,0.27-0.06,0.4-0.11c0.37-0.12,0.76-0.24,1.11-0.41
				c0.74-0.36,1.29-0.72,1.9-1.27c0.66-0.6,1.14-1.43,1.33-2.29c0.1-0.46,0.08-0.97,0.02-1.42c-0.06-0.44-0.26-0.86-0.49-1.24
				c-0.08-0.13-0.18-0.24-0.3-0.35c-0.42-0.36-0.74-0.59-1.29-0.74c-1.5-0.42-3.24-0.04-4.51,0.82c-0.5,0.34-1.11,0.91-1.21,1.55
				c-0.09,0.57,0.23,1.12,0.73,1.39c0.66,0.35,1.47,0.45,2.21,0.35C99.84,57.98,100.72,57.72,101.46,57.22L101.46,57.22z"/>
		</g>
	</g>
	<g>
		<path class="st0" d="M62.19,81.38c-1.07,0.04-2.1,0.65-2.66,1.57c-0.34,0.56-0.5,1.3-0.16,1.86c0.17,0.29,0.45,0.49,0.75,0.64
			c0.9,0.46,2.03,0.43,2.91-0.07c0.46-0.26,0.86-0.67,0.98-1.18c0.18-0.75-0.32-1.54-1.01-1.9c-0.68-0.36-1.49-0.38-2.26-0.29"/>
		<g>
			<path class="st0" d="M62.44,78.81c-1.08,0.06-2.27,0.36-3.22,0.89c-0.89,0.5-1.77,1.14-2.37,1.99c-0.55,0.78-1.05,1.74-1.02,2.73
				c0.02,0.76,0.13,1.23,0.53,1.9c0.24,0.41,0.64,0.78,1.05,1.03c0.87,0.54,1.85,0.92,2.88,0.98c0.39,0.02,0.82,0.06,1.22,0.02
				c0.4-0.03,0.8-0.11,1.19-0.19c0.56-0.11,1.11-0.33,1.63-0.57c1.17-0.55,2.12-1.43,2.72-2.57c0.21-0.4,0.34-0.89,0.34-1.35
				c0.01-0.8-0.15-1.24-0.5-1.93c-0.45-0.9-1.45-1.6-2.38-1.93c-1.13-0.39-2.34-0.5-3.52-0.37c-0.88,0.1-1.77,0.36-2.48,0.93
				c-0.33,0.23-0.58,0.52-0.76,0.87c-0.22,0.29-0.34,0.62-0.37,0.98c-0.02,0.69,0.24,1.37,0.83,1.78c0.65,0.44,1.49,0.67,2.27,0.58
				c0.29-0.03,0.59-0.05,0.88-0.04c-0.28-0.01-0.57-0.02-0.85-0.03c0.27,0.01,0.53,0.04,0.79,0.11c-0.26-0.07-0.51-0.13-0.77-0.2
				c0.21,0.06,0.4,0.13,0.59,0.23c-0.22-0.12-0.43-0.23-0.65-0.35c0.18,0.1,0.34,0.22,0.49,0.37c-0.16-0.16-0.33-0.33-0.49-0.49
				c0.16,0.17,0.29,0.35,0.39,0.56c-0.1-0.21-0.19-0.41-0.29-0.61c0.08,0.19,0.13,0.38,0.15,0.58c-0.02-0.23-0.04-0.45-0.05-0.68
				c0.01,0.16-0.01,0.31-0.05,0.46c0.06-0.22,0.12-0.45,0.18-0.67c-0.04,0.13-0.1,0.25-0.16,0.37c0.13-0.21,0.26-0.42,0.39-0.63
				c-0.09,0.14-0.19,0.26-0.3,0.37c0.19-0.19,0.38-0.37,0.57-0.56c-0.12,0.11-0.24,0.21-0.38,0.3c0.24-0.15,0.48-0.3,0.72-0.46
				c-0.17,0.1-0.34,0.19-0.52,0.26c0.28-0.11,0.57-0.22,0.85-0.32c-0.21,0.08-0.42,0.13-0.64,0.17c0.3-0.05,0.6-0.1,0.9-0.15
				c-0.2,0.03-0.39,0.04-0.59,0.04c0.28,0.01,0.57,0.02,0.85,0.03c-0.22-0.01-0.44-0.04-0.66-0.09c0.26,0.07,0.51,0.13,0.77,0.2
				c-0.24-0.06-0.47-0.15-0.69-0.26c0.22,0.12,0.43,0.23,0.65,0.35c-0.17-0.09-0.32-0.2-0.46-0.33c0.16,0.16,0.33,0.33,0.49,0.49
				c-0.12-0.12-0.21-0.25-0.29-0.4c0.1,0.21,0.19,0.41,0.29,0.61c-0.07-0.16-0.1-0.31-0.12-0.48c0.02,0.23,0.04,0.45,0.05,0.68
				c-0.01-0.2,0.01-0.39,0.06-0.58c-0.06,0.22-0.12,0.45-0.18,0.67c0.06-0.24,0.16-0.46,0.29-0.68c-0.13,0.21-0.26,0.42-0.39,0.63
				c0.14-0.22,0.29-0.42,0.47-0.6c-0.19,0.19-0.38,0.37-0.57,0.56c0.18-0.18,0.38-0.34,0.6-0.47c-0.24,0.15-0.48,0.3-0.72,0.46
				c0.18-0.11,0.37-0.2,0.56-0.28c-0.28,0.11-0.57,0.22-0.85,0.32c0.22-0.08,0.44-0.14,0.67-0.18c-0.3,0.05-0.6,0.1-0.9,0.15
				c0.12-0.02,0.23-0.03,0.35-0.04c0.85-0.05,1.81-0.39,2.48-0.93c0.33-0.23,0.58-0.52,0.76-0.87c0.22-0.29,0.34-0.62,0.37-0.98
				c0.02-0.69-0.24-1.37-0.83-1.78C64.04,78.94,63.24,78.77,62.44,78.81L62.44,78.81z"/>
		</g>
	</g>
</g>
<g id="TenorSans_1_">
	<g>
		<path class="st0" d="M184.07,48.21c2.75,0,5.43-0.18,8.08,0.05c2.62,0.23,4.38,2.32,4.45,4.74c0.07,2.65-1.48,4.58-4.17,5.2
			c-0.22,0.05-0.43,0.12-0.54,0.15c0.55,0.72,1.11,1.41,1.61,2.14c0.98,1.43,1.92,2.89,2.9,4.32c0.78,1.14,1.79,1.89,3.26,1.78
			c0.33,0.78,0.07,1.13-0.72,1.25c-1.77,0.25-3.26-0.2-4.3-1.7c-1.15-1.64-2.32-3.27-3.34-4.98c-1.07-1.82-2.53-2.57-4.71-2.1
			c0,2.76,0,5.58,0,8.45c-0.9,0-1.68,0-2.51,0C184.07,61.06,184.07,54.66,184.07,48.21z M186.6,57.76c1.37-0.06,2.64-0.02,3.88-0.2
			c1.94-0.29,3.48-2.21,3.52-4.18c0.04-1.96-1.38-3.71-3.49-4c-1.26-0.17-2.57-0.03-3.91-0.03C186.6,52.12,186.6,54.84,186.6,57.76z
			"/>
		<path class="st0" d="M157.53,57.74c0-5.39,4.37-10.24,10.78-10.02c5.78,0.2,10.46,4.56,10.45,10.09
			c-0.01,5.61-4.75,10.08-10.76,10.12C162.08,67.96,157.51,63.52,157.53,57.74z M168.06,66.89c1.22-0.39,2.53-0.62,3.65-1.21
			c5.57-2.96,5.92-11.82,0.66-15.39c-3.91-2.65-8.95-1.35-11.1,2.85c-1.03,2-1.24,4.12-0.98,6.33
			C160.8,63.58,164.07,66.64,168.06,66.89z"/>
		<path class="st0" d="M152.22,67.52c-0.84,0-1.57,0-2.45,0c0-1.62,0-3.21,0-4.8c0-1.56,0-3.12,0-4.76c-3.88,0-7.67,0-11.6,0
			c0,3.15,0,6.3,0,9.51c-0.89,0-1.64,0-2.49,0c-0.02-0.37-0.06-0.72-0.06-1.07c0-5.71-0.01-11.42,0.01-17.12
			c0-0.38,0.15-1.06,0.33-1.09c0.64-0.12,1.32-0.05,1.97,0.04c0.1,0.01,0.18,0.53,0.18,0.81c0.01,2.1,0.01,4.21,0.01,6.31
			c0,0.39,0.03,0.78,0.05,1.19c3.89,0,7.68,0,11.59,0c0-2.8,0-5.56,0-8.38c0.87,0,1.62,0,2.45,0
			C152.22,54.61,152.22,61.03,152.22,67.52z"/>
		<path class="st0" d="M237.79,48.17c0.03,0.19,0.06,0.32,0.06,0.44c0.01,0.27,0,0.53,0,0.95c-3.32,0-6.61,0-9.97,0
			c0,2.4,0,4.65,0,7.01c2.81,0,5.63,0,8.51,0c0,0.46,0,0.81,0,1.29c-2.8,0-5.62,0-8.51,0c0,2.77,0,5.41,0,8.14c3.3,0,6.56,0,9.9,0
			c0,0.52,0,0.97,0,1.49c-4.1,0-8.22,0-12.43,0c0-6.41,0-12.83,0-19.31C229.53,48.17,233.64,48.17,237.79,48.17z"/>
		<path class="st0" d="M201.94,67.47c1.19-2.79,2.33-5.49,3.47-8.18c1.48-3.5,2.94-7,4.46-10.48c0.13-0.31,0.58-0.64,0.9-0.66
			c0.33-0.02,0.88,0.23,1.01,0.51c2.92,6.18,5.79,12.37,8.66,18.57c0.02,0.06,0.01,0.13,0.03,0.26c-0.85,0-1.68,0-2.57,0
			c-0.76-1.64-1.55-3.29-2.29-4.97c-0.25-0.58-0.59-0.77-1.22-0.76c-2.64,0.03-5.27,0.03-7.91,0c-0.62-0.01-0.96,0.17-1.19,0.78
			c-0.54,1.4-1.16,2.77-1.74,4.15C203.17,67.59,203.17,67.59,201.94,67.47z M206.18,60.51c2.89,0,5.59,0,8.48,0
			c-1.48-3.17-2.89-6.2-4.43-9.49C208.81,54.34,207.52,57.36,206.18,60.51z"/>
		<path class="st0" d="M274.79,48.15c0.45,0,0.74,0,1.16,0c0,0.4,0,0.76,0,1.11c0,3.81,0,7.61,0,11.42c0,4.48-3.14,7.46-7.63,7.23
			c-0.76-0.04-1.54-0.08-2.29-0.22c-3.39-0.63-5.41-2.63-5.56-6.1c-0.19-4.43-0.05-8.87-0.05-13.4c0.79,0,1.56,0,2.47,0
			c0,0.38,0,0.74,0,1.09c0,3.91-0.01,7.81,0,11.72c0.01,3.11,2.05,5.45,4.91,5.63c3.81,0.25,6.37-1.56,6.86-4.89
			c0.1-0.66,0.13-1.33,0.13-1.99C274.8,55.93,274.79,52.09,274.79,48.15z"/>
		<path class="st0" d="M247.17,49.59c-2.56,0-4.94,0-7.39,0c0-0.53,0-0.94,0-1.42c5.77,0,11.5,0,17.29,0c0,0.46,0,0.87,0,1.43
			c-2.45,0-4.87,0-7.37,0c0,6.04,0,11.94,0,17.9c-0.87,0-1.65,0-2.52,0C247.17,61.56,247.17,55.66,247.17,49.59z"/>
	</g>
</g>
</svg>
