<?xml version="1.0" encoding="utf-8"?>
<!-- Generator: Adobe Illustrator 25.2.0, SVG Export Plug-In . SVG Version: 6.00 Build 0)  -->
<svg version="1.0" id="Layer_1" xmlns="http://www.w3.org/2000/svg" xmlns:xlink="http://www.w3.org/1999/xlink" x="0px" y="0px"
	 viewBox="0 0 636.68 615.85" style="enable-background:new 0 0 636.68 615.85;" xml:space="preserve">
<g>
	<g>
		<path d="M56.23,40.01C36.07,72.8,31.6,114.16,45.51,150.24c13.71,35.53,44.29,60.13,77.87,76.06c18.56,8.8,38.14,15.1,57.85,20.75
			c10.54,3.02,21.15,5.81,31.75,8.64c5.38,1.44,10.76,2.88,16.12,4.37c2.6,0.72,5.19,1.45,7.78,2.2c1.29,0.37,2.58,0.75,3.87,1.13
			c0.64,0.19,1.29,0.38,1.93,0.57c2.14,0.63-0.86-0.27,0.47,0.14c19.57,6.01,38.7,13.17,56.8,22.8c3.97,2.11,7.89,4.32,11.75,6.63
			c1.93,1.15,3.84,2.32,5.74,3.52c0.95,0.6,1.89,1.2,2.83,1.81c0.47,0.3,0.94,0.61,1.41,0.92c1.55,1.01-0.6-0.41,0.35,0.23
			c7.54,5.1,14.87,10.5,21.92,16.25c28.74,23.45,53.01,52.06,72.93,83.27c2.47,3.86,4.86,7.77,7.21,11.72
			c-0.37-0.63-0.74-1.25-1.11-1.88c17.19,29.09,31.45,60.47,36.75,94.07c1.56,9.9,2.3,19.89,2.22,29.91
			c0.01-0.73,0.02-1.46,0.02-2.18c-0.14,10.25-0.87,20.68-3.59,30.6c-0.61,2.22-1.32,4.41-2.15,6.56c-0.44,1.13-0.92,2.24-1.42,3.35
			c-0.42,0.93-0.37,0.66,0.05-0.09c-0.27,0.47-0.5,0.95-0.77,1.41c-1.18,2.09-2.52,4.1-4.04,5.96c-0.24,0.3-0.94,0.86-1.03,1.22
			c0.13-0.5,1.64-1.61,0.43-0.46c-0.99,0.93-1.97,1.83-3.03,2.69c-1.74,1.41-3.88,4.18-3.22,6.66c0.67,2.5,3.9,3.78,6.12,4.16
			c7.65,1.29,16.52-1.17,22.54-6.04c17.42-14.09,21.44-37.08,21.91-58.25c0.51-22.99-3.14-45.61-10.39-67.42
			c-6.8-20.45-16.36-39.89-27.21-58.47c-10.59-18.13-22.34-35.56-35.61-51.84c-25.75-31.59-57.05-58.68-92.91-78.2
			c-41.68-22.68-88.51-31.36-133.55-44.78c-0.64-0.19-1.29-0.38-1.93-0.58c2.27,0.69,0.1,0.03-0.47-0.15
			c-1.44-0.45-2.88-0.9-4.32-1.36c-2.56-0.82-5.12-1.66-7.67-2.53c-4.92-1.68-9.8-3.46-14.63-5.37c-9.6-3.79-19.01-8.09-28.06-13.07
			c-4.35-2.39-8.59-4.96-12.74-7.67c-1.39-0.91,1.86,1.31-0.36-0.25c-0.46-0.32-0.93-0.64-1.39-0.96c-0.92-0.64-1.84-1.3-2.75-1.96
			c-2.15-1.57-4.27-3.2-6.34-4.88c-7.73-6.29-14.83-13.36-20.98-21.21c-3.02-3.86-5.81-7.9-8.32-12.12
			c0.37,0.63,0.74,1.25,1.11,1.88C74.39,139.45,69.18,118.03,69.4,96.6c-0.01,0.73-0.02,1.46-0.02,2.18
			c0.18-10.3,1.58-20.55,4.34-30.49c1.38-4.95,3.08-9.82,5.09-14.55c0.53-1.23,1.07-2.46,1.64-3.67c0.09-0.2,1.13-2.33,0.62-1.3
			c-0.44,0.88,0.38-0.73,0.46-0.88c1.34-2.56,2.78-5.07,4.29-7.53c1.28-2.08,1.86-4.33,0.03-6.32c-1.88-2.05-6.03-2.62-8.55-2.61
			c-4.23,0.03-8.62,0.8-12.49,2.52C61.76,35.31,58.04,37.07,56.23,40.01L56.23,40.01z"/>
	</g>
</g>
<g>
	<g>
		<path d="M500.55,93.59c-3.74,7.35-7.7,14.59-11.88,21.7c-0.52,0.88-1.04,1.76-1.56,2.63c-0.26,0.44-0.53,0.87-0.79,1.31
			c-0.21,0.35-1.2,1.92-0.29,0.49c-1.09,1.73-2.14,3.47-3.24,5.2c-2.18,3.44-4.42,6.85-6.71,10.23
			c-9.21,13.58-19.27,26.59-30.11,38.91c-3.06,3.48-6.18,6.9-9.37,10.27c-1.54,1.63-3.1,3.25-4.66,4.85
			c-0.81,0.83-1.62,1.65-2.44,2.47c-0.41,0.41-0.82,0.82-1.23,1.23c-0.15,0.15-0.31,0.31-0.46,0.46c-1.1,1.09,1.11-1.09,0.01-0.01
			c-1.1,1.08-2.43,2.38-2.48,4.07c-0.04,1.32,0.36,2.42,1.29,3.37c2.24,2.25,6.72,2.45,9.37,0.79
			c20.67-12.95,42.38-24.23,64.87-33.68c2.8-1.18,5.62-2.33,8.45-3.45c1.27-0.5,2.55-1,3.82-1.49c0.71-0.27,1.42-0.54,2.13-0.81
			c0.2-0.07,1.63-0.62,0.34-0.13c-1.33,0.5,0.54-0.2,0.77-0.29c5.62-2.09,11.29-4.06,16.99-5.92c3.24-1.06,6.64-1.88,9.76-3.26
			c4.37-1.93,7.27-6.56,5.25-11.19c-1.39-3.19-3.28-6.21-4.95-9.26c-1.5-2.74-3-5.49-4.52-8.22c-3.38-6.1-6.88-12.14-10.8-17.91
			c-4.01-5.9-8.58-11.35-13.23-16.75c-2.38-2.77-6.78-3.03-9.91-1.33c-2.44,1.33-5.8,5-3.31,7.9c5.16,6,10.17,12.06,14.51,18.68
			c4.3,6.55,8.11,13.4,11.87,20.27c2.16,3.94,4.46,7.84,6.46,11.86c-0.21-0.45-0.43-0.9-0.64-1.35c0.3,0.67,0.52,1.3,0.59,2.03
			c-0.04-0.49-0.08-0.99-0.12-1.48c-0.01,0.34-0.19,0.57,0.07,0.06c0.34-0.66,0.92-1.67,1.54-2.15c-0.06,0.05,1.53-0.78,0.87-0.53
			c-0.11,0.04-0.4,0.14-0.48,0.22c0.03-0.04,1.96-0.66,0.88-0.36c-0.22,0.06-0.44,0.13-0.65,0.2c-0.51,0.16-1.01,0.32-1.52,0.47
			c-1.88,0.59-3.76,1.2-5.64,1.81c-3.68,1.21-7.34,2.47-10.99,3.77c-7.93,2.84-15.79,5.87-23.55,9.11
			c-14.47,6.05-28.63,12.86-42.39,20.39c-7.83,4.29-15.54,8.81-23.11,13.55c2.73,2.74,5.46,5.49,8.19,8.23
			c12.15-11.94,23.6-24.55,34.14-37.93c10.61-13.46,20.27-27.62,29.09-42.31c4.85-8.07,9.41-16.32,13.67-24.71
			c1.63-3.21-1.5-6.24-4.55-6.59C506.25,88.6,502.29,90.17,500.55,93.59L500.55,93.59z"/>
	</g>
</g>
<g>
	<g>
		<path d="M40.14,484.97c16.04-9.47,31.93-19.19,47.79-28.97c36.09-22.26,71.89-45.03,107.12-68.64
			c35.66-23.89,71.16-48.42,104.18-75.89c44.21-36.79,85.84-77.09,123.68-120.41C462,146.3,497.09,97.77,525.16,45.32
			c3.43-6.4,6.73-12.87,9.93-19.39c-10.59,2.23-21.18,4.45-31.76,6.68c4.26,19.52,9.59,39.09,18.97,56.84
			c8.79,16.61,20.92,30.95,35.23,43.06c9.6,8.13,19.95,15.32,30.54,22.09c4.4-4.09,8.79-8.18,13.18-12.27
			c-18.75,6.12-37.57,12.04-56.39,17.95c-11.08,3.48-22.22,6.83-33.06,11.03c-10.28,3.98-20.24,8.72-30.2,13.45
			c-32.02,15.19-64.2,30.32-94.03,49.55c-19.43,12.53-38.41,25.73-57.43,38.86c-19.68,13.59-39.59,26.86-59.25,40.48
			c-39.14,27.09-77.74,54.95-116.98,81.89c-19.42,13.33-39,26.44-58.87,39.11c-0.6,0.38-1.19,0.76-1.79,1.14
			c-0.37,0.24-2.3,1.46-0.76,0.48c1.53-0.97-0.39,0.25-0.76,0.48c-0.6,0.38-1.2,0.75-1.79,1.13c-2.69,1.69-5.39,3.37-8.09,5.05
			c-4.95,3.07-9.92,6.1-14.91,9.1c-10.11,6.08-20.31,12.02-30.61,17.78c-5.06,2.83-10.15,5.62-15.27,8.37
			c-2.01,1.08-5.58,3.31-6.29,5.81c-0.64,2.24,0.91,3.84,2.94,4.53C24.63,490.87,33.96,488.29,40.14,484.97
			c42.08-22.62,82.47-48.27,122.04-75c39.15-26.45,77.51-54.03,116.22-81.11c19.45-13.61,39.1-26.91,58.72-40.28
			c19.1-13.01,37.97-26.34,57.17-39.2c4.85-3.25,9.72-6.47,14.62-9.66c2.45-1.59,4.9-3.17,7.36-4.74c0.62-0.4,1.25-0.8,1.87-1.19
			c0.35-0.22,2.36-1.48,0.89-0.56c-1.26,0.78,0.79-0.49,1.14-0.7c5.98-3.65,12.16-6.98,18.36-10.25
			c16.16-8.54,32.6-16.56,49.08-24.48c7.18-3.45,14.38-6.87,21.59-10.26c0.51-0.24,1.05-0.46,1.55-0.73
			c-0.37,0.19-3.18,1.43-0.66,0.31c1.33-0.59,2.65-1.18,3.98-1.76c2.83-1.22,5.67-2.39,8.54-3.52c2.69-1.06,5.41-2.07,8.13-3.04
			c1.36-0.48,2.73-0.96,4.1-1.42c0.63-0.21,2.84-1.15,0.49-0.17c-2.54,1.06,0.42-0.12,1.02-0.31c18.57-5.84,37.14-11.64,55.68-17.59
			c4.23-1.36,8.47-2.73,12.69-4.11c4.28-1.4,8.46-2.79,11.84-5.89c1.48-1.36,4.07-4.64,1.35-6.38
			c-22.31-14.27-43.77-30.69-58.52-53.04c0.34,0.52,0.69,1.04,1.03,1.56c-13.27-20.34-20.07-43.87-25.2-67.39
			c-0.49-2.25-4.15-3.11-5.89-3.3c-3.24-0.35-6.46,0.01-9.63,0.68c-5.73,1.21-13.46,3.61-16.25,9.3
			c-25.74,52.44-58.67,100.35-96.4,145.52c-18.83,22.54-38.72,44.18-59.46,64.98c-10.19,10.22-20.58,20.24-31.16,30.06
			c-1.19,1.1-2.38,2.21-3.58,3.31c1.9-1.75-0.49,0.44-0.72,0.66c-0.48,0.44-0.96,0.87-1.43,1.31c-2.86,2.61-5.73,5.2-8.62,7.78
			c-5.24,4.68-10.53,9.32-15.85,13.91c-32.42,27.94-67.26,52.88-102.63,76.93c-18.57,12.63-37.32,24.98-56.2,37.14
			c-4.49,2.9-8.99,5.78-13.5,8.65c-2.1,1.34-4.19,2.67-6.29,4c-1.08,0.69-2.17,1.37-3.25,2.06c4.03-2.56-0.19,0.12-1.14,0.72
			c-8.08,5.1-16.17,10.17-24.28,15.21c-18.89,11.73-37.88,23.29-56.98,34.68c-0.29,0.17-0.58,0.34-0.87,0.51
			c-2.02,1.19-5.56,3.23-6.29,5.81c-0.64,2.24,0.91,3.84,2.94,4.53C24.42,490.79,34.22,488.47,40.14,484.97L40.14,484.97z"/>
	</g>
</g>
<g>
	<path d="M304.51,143.51c2.16-4.37,8.6-5.87,12.46-2.89c2.07,1.6,3.29,4.13,3.7,6.72c0.83,5.22-1.76,10.96-6.47,13.35
		c-4.71,2.39-11.21,0.85-13.95-3.68c-2.74-4.52-0.76-11.35,4.15-13.32"/>
	<g>
		<path d="M320.26,140.81c0.19-0.37,0.41-0.72,0.65-1.07c-0.42,0.57-0.84,1.14-1.26,1.71c0.4-0.53,0.86-1,1.37-1.42
			c-0.73,0.58-1.47,1.17-2.2,1.75c0.39-0.31,0.8-0.58,1.24-0.83c-1,0.57-2,1.13-3,1.7c0.3-0.16,0.59-0.3,0.9-0.43
			c-1.22,0.52-2.44,1.04-3.66,1.56c0.23-0.09,0.47-0.18,0.71-0.26c-1.4,0.44-2.79,0.88-4.19,1.33c0.24-0.07,0.48-0.14,0.73-0.2
			c-1.43,0.31-2.86,0.63-4.29,0.94c0.33-0.07,0.66-0.13,0.99-0.17c-1.32,0.16-2.63,0.32-3.95,0.48c0.33-0.04,0.66-0.06,1-0.07
			c-1.15,0.01-2.3,0.02-3.45,0.03c0.5,0,0.99,0.04,1.49,0.11c-0.93-0.14-1.85-0.28-2.78-0.41c0.66,0.12,1.28,0.3,1.9,0.55
			c-0.65-0.28-1.3-0.56-1.95-0.85c1.32,0.6,2.36,1.52,3.23,2.68c-0.32-0.42-0.63-0.84-0.95-1.27c1.72,2.44,2.34,5.43,2.04,8.38
			c0.06-0.52,0.13-1.05,0.19-1.57c-0.29,2.31-1.12,4.48-2.47,6.38c0.42-0.57,0.84-1.14,1.26-1.71c-0.63,0.85-1.34,1.6-2.15,2.27
			c0.73-0.58,1.47-1.17,2.2-1.75c-0.45,0.36-0.92,0.68-1.41,0.97c1-0.57,2-1.13,3-1.7c-0.32,0.18-0.65,0.35-0.99,0.5
			c1.22-0.52,2.44-1.04,3.66-1.56c-0.33,0.14-0.66,0.27-1,0.38c1.4-0.44,2.79-0.88,4.19-1.33c-0.34,0.1-0.69,0.2-1.04,0.27
			c1.43-0.31,2.86-0.63,4.29-0.94c-0.35,0.07-0.7,0.13-1.06,0.17c1.32-0.16,2.63-0.32,3.95-0.48c-0.36,0.04-0.71,0.06-1.07,0.07
			c1.15-0.01,2.3-0.02,3.45-0.03c-0.63,0-1.25-0.04-1.88-0.12c0.93,0.14,1.85,0.28,2.78,0.41c-0.98-0.16-1.91-0.42-2.83-0.79
			c0.65,0.28,1.3,0.56,1.95,0.85c-1.64-0.72-3.05-1.78-4.14-3.21c0.32,0.42,0.63,0.84,0.95,1.27c-1.37-1.92-1.87-4.2-1.61-6.54
			c-0.06,0.52-0.13,1.05-0.19,1.57c0.23-1.7,0.83-3.28,1.82-4.68c-0.42,0.57-0.84,1.14-1.26,1.71c0.45-0.6,0.96-1.14,1.54-1.62
			c-0.73,0.58-1.47,1.17-2.2,1.75c0.33-0.26,0.67-0.49,1.03-0.7c-1,0.57-2,1.13-3,1.7c0.22-0.12,0.45-0.23,0.68-0.34
			c-1.22,0.52-2.44,1.04-3.66,1.56c0.08-0.03,0.16-0.07,0.24-0.1c2.91-1.22,6.63-2.6,8.87-5.01c1.14-1.22,2.35-3.24,0.5-4.55
			c-0.65-0.28-1.3-0.56-1.95-0.85c-2.05-0.45-4.13-0.58-6.23-0.38c-4.17,0.33-8.56,1.13-12.43,2.75
			c-5.56,2.33-11.53,5.11-14.41,10.76c-0.54,1.07-0.87,2.21-1.03,3.39c-0.23,1.63-0.4,3.24-0.05,4.86c0.26,1.18,0.77,2.27,1.47,3.25
			c0.99,1.39,2.01,2.67,3.45,3.6c4.32,2.81,9.53,3.18,14.53,3.02c3.77-0.12,7.8-0.87,11.41-1.94c4.72-1.39,9.49-3.11,13.57-5.93
			c3.35-2.31,6.46-5.39,7.95-9.26c1.1-2.86,1.48-6.31,0.77-9.31c-0.34-1.44-0.93-2.79-1.79-4c-1.03-1.45-2.12-2.89-3.73-3.73
			c-2.55-1.33-5.06-1.95-7.94-2.12c-4.95-0.3-10.03,0.51-14.78,1.81c-4.72,1.29-9.76,3.09-13.74,6.02c-2.32,1.7-4.34,3.5-5.68,6.1
			c-1.04,2.02,1.22,3.23,2.71,3.69c1.49,0.37,2.99,0.5,4.51,0.4c1.91,0.05,3.8-0.12,5.68-0.5c4.14-0.77,8.39-1.87,12.14-3.83
			C316.18,144.72,318.97,143.31,320.26,140.81L320.26,140.81z"/>
	</g>
</g>
<g>
	<path d="M166.57,295.43c5.02-0.77,10.39,1.78,12.97,6.16s2.2,10.31-0.91,14.33c-1.08,1.4-2.49,2.59-4.16,3.16
		c-3.56,1.22-7.51-0.57-10.28-3.11c-3.63-3.33-6.01-8.52-4.58-13.23c1.43-4.71,7.68-7.74,11.67-4.85"/>
	<g>
		<path d="M164.29,303.84c0.34-0.05,0.68-0.08,1.03-0.11c-1.34,0.09-2.67,0.17-4.01,0.26c0.58-0.03,1.15-0.02,1.72,0.01
			c-1.18-0.11-2.36-0.21-3.54-0.32c0.92,0.08,1.82,0.25,2.71,0.5c-0.97-0.29-1.93-0.57-2.9-0.86c1.22,0.38,2.36,0.9,3.45,1.58
			c-0.7-0.46-1.39-0.91-2.09-1.37c1.65,1.09,3.03,2.48,4.06,4.17c-0.37-0.62-0.74-1.23-1.11-1.85c1.18,2.08,1.73,4.38,1.7,6.77
			c0.01-0.72,0.02-1.44,0.03-2.16c-0.07,1.91-0.5,3.73-1.31,5.46c0.37-0.74,0.75-1.49,1.12-2.23c-0.55,1.09-1.22,2.07-2.04,2.96
			c0.69-0.73,1.39-1.46,2.08-2.19c-0.45,0.46-0.91,0.87-1.42,1.25c0.97-0.68,1.94-1.36,2.91-2.04c-0.42,0.29-0.84,0.54-1.3,0.76
			c1.2-0.59,2.4-1.19,3.6-1.78c-0.23,0.11-0.46,0.2-0.7,0.28c1.39-0.47,2.78-0.94,4.16-1.4c-0.36,0.11-0.71,0.2-1.08,0.28
			c1.44-0.29,2.87-0.58,4.31-0.87c-0.24,0.04-0.48,0.07-0.73,0.09c1.34-0.09,2.67-0.17,4.01-0.26c-0.49,0.03-0.97,0.02-1.46-0.02
			c1.18,0.1,2.36,0.21,3.54,0.32c-0.62-0.08-1.21-0.2-1.81-0.37c0.97,0.29,1.93,0.57,2.9,0.86c-1.1-0.36-2.11-0.85-3.09-1.45
			c0.7,0.46,1.39,0.91,2.09,1.37c-2.08-1.37-3.79-3.17-5.1-5.28c0.37,0.62,0.74,1.23,1.11,1.85c-1.22-2.08-1.99-4.35-2.01-6.78
			c-0.01,0.72-0.02,1.44-0.03,2.16c0.03-1.35,0.28-2.66,0.85-3.89c-0.37,0.74-0.75,1.49-1.12,2.23c0.41-0.8,0.92-1.51,1.54-2.16
			c-0.69,0.73-1.39,1.46-2.08,2.19c0.43-0.42,0.87-0.8,1.36-1.15c-0.97,0.68-1.94,1.36-2.91,2.04c0.41-0.28,0.83-0.52,1.28-0.74
			c-1.2,0.59-2.4,1.19-3.6,1.78c0.36-0.16,0.72-0.31,1.09-0.44c-1.39,0.47-2.78,0.94-4.16,1.4c0.28-0.09,0.55-0.16,0.84-0.22
			c-1.44,0.29-2.87,0.58-4.31,0.87c0.38-0.07,0.75-0.12,1.13-0.15c-1.34,0.09-2.67,0.17-4.01,0.26c0.38-0.01,0.75-0.01,1.12,0.02
			c-1.18-0.11-2.36-0.21-3.54-0.32c0.37,0.05,0.73,0.12,1.1,0.22c-0.97-0.29-1.93-0.57-2.9-0.86c0.55,0.18,1.05,0.41,1.55,0.71
			c-0.7-0.46-1.39-0.91-2.09-1.37c0.08,0.06,0.16,0.11,0.24,0.17c1.02,0.95,2.2,1.55,3.54,1.8c1.6,0.58,3.27,0.83,4.99,0.74
			c4.04,0.07,8.8-0.9,12.48-2.53c3.04-1.35,6.79-3.09,8.6-6.02c1.06-1.72,2.27-4.72,0.05-6.24c-2.54-1.75-4.45-2.74-7.6-3.29
			c-4.82-0.85-9.98-0.3-14.67,0.97c-6.67,1.81-13.26,5.08-17.63,10.58c-2.55,3.22-3.36,7.17-2.87,11.18
			c0.42,3.51,2.47,6.98,4.76,9.59c3.07,3.51,7.35,5.62,11.82,6.71c3.58,0.88,7.58,0.74,11.19,0.26c5.24-0.7,10.72-2.47,15.15-5.37
			c4.78-3.13,8.93-7.32,10.44-13c0.85-3.19,0.84-7.04-0.31-10.16c-4.08-11.01-17.12-13.65-27.53-12.21
			c-4.1,0.57-8.51,1.91-12.08,4.05c-1.54,0.79-2.85,1.84-3.95,3.14c-1.04,0.89-1.76,1.99-2.17,3.33c-0.01,0.72-0.02,1.44-0.03,2.16
			c0.56,1.56,1.63,2.63,3.2,3.22C157.07,304.29,160.87,304.31,164.29,303.84L164.29,303.84z"/>
	</g>
</g>
<g>
	<path d="M492.02,288.49c1.58-1.23,3.81,0.48,4.68,2.28c1.7,3.53,1.44,7.92-0.66,11.23s-5.96,5.41-9.88,5.38
		c-1.31-0.01-2.67-0.27-3.72-1.07c-1.55-1.19-2.06-3.28-2.35-5.21c-0.67-4.48-0.61-9.36,1.91-13.13c2.52-3.76,8.19-5.64,11.75-2.84"
		/>
	<g>
		<path d="M502.21,294.32c0.08-0.05,0.16-0.11,0.24-0.16c-1.19,0.65-2.37,1.3-3.56,1.95c0.08-0.04,0.17-0.08,0.25-0.12
			c-1.38,0.49-2.77,0.98-4.15,1.47c0.09-0.03,0.17-0.05,0.26-0.08c-1.44,0.27-2.88,0.54-4.33,0.8c0.17-0.04,0.35-0.06,0.53-0.05
			c-1.35,0.03-2.7,0.06-4.06,0.09c0.09,0.01,0.18,0.02,0.27,0.03c-1.2-0.19-2.41-0.39-3.61-0.58c0.18,0.03,0.36,0.08,0.54,0.14
			c-1-0.4-2-0.8-2.99-1.2c0.38,0.16,0.7,0.35,1.03,0.59c-0.73-0.59-1.47-1.19-2.2-1.78c0.58,0.48,1.04,1.02,1.43,1.67
			c-0.41-0.77-0.82-1.54-1.23-2.31c0.77,1.47,1.14,3.07,1.24,4.72c-0.03-0.87-0.06-1.74-0.09-2.61c0.05,1.68-0.21,3.3-0.8,4.88
			c0.34-0.88,0.68-1.76,1.01-2.64c-0.4,0.98-0.91,1.88-1.54,2.72c0.66-0.85,1.33-1.69,1.99-2.54c-0.56,0.7-1.18,1.33-1.87,1.91
			c0.95-0.77,1.89-1.54,2.84-2.31c-0.53,0.42-1.08,0.79-1.66,1.13c1.19-0.65,2.37-1.3,3.56-1.95c-0.59,0.32-1.2,0.6-1.83,0.84
			c1.38-0.49,2.77-0.98,4.15-1.47c-0.64,0.22-1.28,0.39-1.94,0.52c1.44-0.27,2.88-0.54,4.33-0.8c-0.55,0.09-1.1,0.14-1.67,0.17
			c1.35-0.03,2.7-0.06,4.06-0.09c-0.6,0-1.18-0.03-1.77-0.12c1.2,0.19,2.41,0.39,3.61,0.58c-0.47-0.1-0.92-0.22-1.37-0.4
			c1,0.4,2,0.8,2.99,1.2c-0.33-0.16-0.62-0.33-0.92-0.54c0.73,0.59,1.47,1.19,2.2,1.78c-0.6-0.49-1.02-1.05-1.39-1.73
			c0.41,0.77,0.82,1.54,1.23,2.31c-1.01-2.16-1.21-4.72-1.31-7.07c0.03,0.87,0.06,1.74,0.09,2.61c-0.07-2.39,0.16-4.76,0.97-7.02
			c-0.34,0.88-0.68,1.76-1.01,2.64c0.42-1.07,0.94-2.07,1.62-2.99c-0.66,0.85-1.33,1.69-1.99,2.54c0.44-0.55,0.92-1.04,1.45-1.49
			c-0.95,0.77-1.89,1.54-2.84,2.31c0.47-0.38,0.96-0.71,1.49-1.01c-1.19,0.65-2.37,1.3-3.56,1.95c0.53-0.28,1.07-0.52,1.63-0.73
			c-1.38,0.49-2.77,0.98-4.15,1.47c0.38-0.12,0.75-0.22,1.14-0.31c-1.44,0.27-2.88,0.54-4.33,0.8c0.48-0.09,0.95-0.14,1.44-0.17
			c-1.35,0.03-2.7,0.06-4.06,0.09c0.48,0,0.94,0.03,1.42,0.1c-1.2-0.19-2.41-0.39-3.61-0.58c0.47,0.09,0.91,0.21,1.35,0.38
			c-1-0.4-2-0.8-2.99-1.2c0.54,0.23,1.02,0.51,1.49,0.86c1.5,0.86,3.1,1.36,4.8,1.5c1.93,0.42,3.88,0.49,5.86,0.2
			c2.22-0.18,4.35-0.69,6.4-1.54c2.02-0.59,3.89-1.48,5.63-2.69c2.41-1.75,5.55-4.28,5.84-7.49c-0.03-0.87-0.06-1.74-0.09-2.61
			c-0.58-1.82-1.73-3.18-3.43-4.09c-1.61-1.2-3.62-1.93-5.56-2.39c-3.38-0.8-7.08-1.03-10.51-0.53c-7.37,1.08-14.07,3.82-19.64,8.82
			c-3.22,2.89-5.37,6.98-6.36,11.15c-0.78,3.26-0.57,6.82-0.21,10.12c0.35,3.2,1.26,6.73,3.76,8.94c2.33,2.06,3.12,2.43,6.11,3.52
			c1.66,0.6,3.38,0.79,5.16,1.01c3.94,0.5,7.8-0.18,11.64-0.96c0.66-0.14,1.3-0.3,1.94-0.52c1.8-0.6,3.67-1.15,5.38-1.99
			c3.55-1.75,6.24-3.48,9.16-6.14c3.17-2.89,5.48-6.89,6.42-11.07c0.49-2.2,0.39-4.66,0.1-6.85c-0.29-2.14-1.24-4.15-2.38-5.97
			c-0.4-0.65-0.85-1.17-1.43-1.67c-2.02-1.74-3.57-2.84-6.23-3.58c-7.24-2.02-15.63-0.17-21.78,3.97c-2.41,1.62-5.35,4.41-5.84,7.49
			c-0.44,2.75,1.1,5.41,3.52,6.7c3.2,1.71,7.11,2.15,10.66,1.7C494.42,298,498.63,296.73,502.21,294.32L502.21,294.32z"/>
	</g>
</g>
<g>
	<path d="M312.71,410.91c-5.17,0.21-10.15,3.16-12.84,7.58c-1.64,2.7-2.39,6.27-0.77,8.99c0.83,1.38,2.17,2.37,3.6,3.1
		c4.35,2.21,9.8,2.07,14.04-0.34c2.2-1.25,4.14-3.21,4.72-5.68c0.85-3.62-1.56-7.42-4.85-9.17c-3.28-1.75-7.2-1.83-10.89-1.41"/>
	<g>
		<path d="M313.92,398.5c-5.21,0.28-10.97,1.74-15.53,4.31c-4.31,2.43-8.56,5.48-11.45,9.58c-2.66,3.78-5.07,8.38-4.93,13.16
			c0.11,3.68,0.62,5.92,2.55,9.15c1.18,1.97,3.09,3.75,5.05,4.96c4.22,2.61,8.91,4.45,13.92,4.73c1.86,0.1,3.97,0.27,5.91,0.12
			c1.94-0.16,3.86-0.54,5.76-0.9c2.71-0.52,5.37-1.57,7.85-2.73c5.63-2.65,10.22-6.92,13.12-12.42c1.02-1.94,1.65-4.3,1.66-6.5
			c0.03-3.84-0.72-5.96-2.41-9.32c-2.19-4.35-7-7.72-11.5-9.29c-5.43-1.89-11.28-2.39-16.98-1.77c-4.27,0.46-8.55,1.75-11.97,4.47
			c-1.58,1.12-2.8,2.52-3.66,4.21c-1.05,1.39-1.64,2.97-1.79,4.74c-0.1,3.35,1.14,6.62,4.02,8.58c3.14,2.14,7.18,3.24,10.97,2.82
			c1.42-0.15,2.83-0.23,4.25-0.2c-1.37-0.05-2.75-0.11-4.12-0.16c1.29,0.06,2.55,0.21,3.8,0.52c-1.24-0.32-2.48-0.64-3.72-0.96
			c0.99,0.27,1.93,0.62,2.84,1.09c-1.04-0.57-2.08-1.13-3.13-1.7c0.88,0.49,1.66,1.08,2.38,1.78c-0.79-0.79-1.57-1.58-2.36-2.36
			c0.77,0.8,1.4,1.68,1.89,2.68c-0.47-0.99-0.93-1.97-1.4-2.96c0.4,0.9,0.65,1.81,0.73,2.78c-0.09-1.09-0.18-2.17-0.26-3.26
			c0.03,0.77-0.05,1.49-0.24,2.24c0.29-1.07,0.57-2.15,0.86-3.22c-0.2,0.63-0.46,1.21-0.79,1.79c0.62-1.01,1.24-2.02,1.86-3.03
			c-0.42,0.66-0.9,1.24-1.45,1.79c0.91-0.9,1.82-1.8,2.74-2.69c-0.57,0.54-1.18,1.01-1.83,1.44c1.16-0.73,2.33-1.47,3.49-2.2
			c-0.8,0.5-1.63,0.91-2.5,1.26c1.37-0.52,2.75-1.04,4.12-1.55c-1.01,0.37-2.03,0.64-3.09,0.82c1.45-0.24,2.9-0.48,4.35-0.72
			c-0.95,0.13-1.89,0.19-2.84,0.17c1.37,0.05,2.75,0.11,4.12,0.16c-1.07-0.05-2.13-0.19-3.17-0.44c1.24,0.32,2.48,0.64,3.72,0.96
			c-1.15-0.3-2.25-0.72-3.31-1.27c1.04,0.57,2.08,1.13,3.13,1.7c-0.81-0.45-1.56-0.97-2.23-1.61c0.79,0.79,1.57,1.58,2.36,2.36
			c-0.58-0.59-1.02-1.21-1.39-1.95c0.47,0.99,0.93,1.97,1.4,2.96c-0.32-0.76-0.49-1.5-0.57-2.32c0.09,1.09,0.18,2.17,0.26,3.26
			c-0.04-0.95,0.06-1.86,0.27-2.78c-0.29,1.07-0.57,2.15-0.86,3.22c0.31-1.16,0.77-2.24,1.38-3.27c-0.62,1.01-1.24,2.02-1.86,3.03
			c0.66-1.06,1.42-2.02,2.29-2.9c-0.91,0.9-1.82,1.8-2.74,2.69c0.89-0.87,1.85-1.63,2.91-2.29c-1.16,0.73-2.33,1.47-3.49,2.2
			c0.87-0.53,1.77-0.97,2.71-1.35c-1.37,0.52-2.75,1.04-4.12,1.55c1.06-0.4,2.13-0.69,3.25-0.87c-1.45,0.24-2.9,0.48-4.35,0.72
			c0.56-0.08,1.11-0.14,1.68-0.17c4.11-0.22,8.74-1.89,11.97-4.47c1.58-1.12,2.8-2.52,3.66-4.21c1.05-1.39,1.64-2.97,1.79-4.74
			c0.1-3.35-1.14-6.62-4.02-8.58C321.65,399.12,317.81,398.29,313.92,398.5L313.92,398.5z"/>
	</g>
</g>
</svg>
