<?xml version="1.0" encoding="utf-8"?>
<!-- Generator: Adobe Illustrator 25.2.1, SVG Export Plug-In . SVG Version: 6.00 Build 0)  -->
<svg version="1.0" id="Layer_1" xmlns="http://www.w3.org/2000/svg" xmlns:xlink="http://www.w3.org/1999/xlink" x="0px" y="0px"
	 viewBox="0 0 1828.53 595.28" style="enable-background:new 0 0 1828.53 595.28;" xml:space="preserve">
<style type="text/css">
	.st0{display:none;}
	.st1{display:inline;}
	.st2{fill:#020203;}
</style>
<g class="st0">
	<g class="st1">
		<path d="M68.51,32.19c-25.16,40.93-23.44,95.82,6.09,134.1c31.43,40.75,83.35,56.87,130.98,69.71
			c28.08,7.57,56.5,14.49,83.35,25.84c22.47,9.5,43.55,22.13,62.75,37.17c38.65,30.28,69.56,69.84,92.8,112.91
			c12.48,23.13,22.61,47.74,27.54,73.64c2.6,13.68,3.73,27.65,3.11,41.56c-0.54,12.01-2.04,24.45-7.34,35.4
			c-2.63,5.43-6.25,10.27-10.95,14.07c-1.27,1.03,1.61,1,2.31,0.43c8.98-7.26,13.84-18.01,16.33-29.06
			c2.8-12.46,3.15-25.62,2.48-38.34c-1.42-26.86-9.08-52.97-20.1-77.39c-20.09-44.52-49.47-86.11-85.52-119.12
			c-17.63-16.14-37.12-30.28-58.16-41.64c-23.84-12.87-49.49-21.37-75.51-28.59c-50.31-13.97-105.59-24.58-145.6-60.75
			c-17.8-16.09-30.57-36.54-36.08-59.96c-5.64-23.97-3.89-49.59,5.35-72.45c2.46-6.08,5.45-11.91,8.88-17.5
			C71.88,31.1,68.99,31.4,68.51,32.19L68.51,32.19z"/>
	</g>
</g>
<g class="st0">
	<g class="st1">
		<path d="M511.66,79.52c-7.51,14.78-15.93,29.08-25.23,42.8c-9.21,13.58-19.27,26.59-30.11,38.91
			c-6.18,7.02-12.6,13.81-19.27,20.37c-0.6,0.59,0.2,1.21,0.82,0.82c20.67-12.95,42.38-24.23,64.87-33.68
			c11.22-4.71,22.62-8.96,34.19-12.73c2.66-0.87,5.52-1.49,8.07-2.62c2.32-1.02,2.72-3.09,1.71-5.29c-1.27-2.76-2.91-5.39-4.37-8.05
			c-1.5-2.74-3-5.49-4.52-8.22c-3.38-6.1-6.88-12.14-10.8-17.91c-4.01-5.9-8.58-11.35-13.23-16.75c-0.46-0.53-1.83,0.07-1.32,0.66
			c4.04,4.7,8.06,9.41,11.64,14.47c3.49,4.93,6.64,10.09,9.64,15.33c2.96,5.16,5.78,10.4,8.64,15.62c0.77,1.4,1.54,2.8,2.3,4.21
			c0.8,1.46,1.99,3.6,0.12,4.8c-1.03,0.66-2.46,0.89-3.62,1.25c-1.45,0.45-2.89,0.92-4.34,1.39c-22.33,7.27-44.09,16.31-65.02,26.98
			c-11.83,6.03-23.38,12.59-34.63,19.64c0.27,0.27,0.55,0.55,0.82,0.82c11.77-11.57,22.81-23.87,33.03-36.83
			c10.3-13.07,19.76-26.8,28.33-41.07c4.85-8.07,9.41-16.32,13.67-24.71C513.44,78.97,511.97,78.91,511.66,79.52L511.66,79.52z"/>
	</g>
</g>
<g class="st0">
	<g class="st1">
		<path d="M30.3,473.9c16.04-9.47,31.93-19.19,47.79-28.97c35.19-21.71,70.08-43.92,104.44-66.93
			c35.66-23.89,71.16-48.42,104.18-75.89c43.55-36.23,84.47-75.95,121.73-118.62c38.63-44.23,73.43-92.12,101.17-143.96
			c3.43-6.4,6.73-12.87,9.93-19.39c-0.96,0.2-1.93,0.4-2.89,0.61c4.26,19.52,9.59,39.09,18.97,56.84
			c8.52,16.11,20.42,29.9,34.29,41.64c9.6,8.13,19.95,15.32,30.54,22.09c0.4-0.37,0.8-0.74,1.2-1.12
			c-18.75,6.12-37.57,12.04-56.39,17.95c-9.82,3.08-19.66,6.07-29.26,9.78c-9.16,3.55-18.03,7.72-26.9,11.93
			c-31.02,14.71-62.44,29.22-91.34,47.85c-19.43,12.53-38.41,25.73-57.43,38.86c-19.68,13.59-39.59,26.86-59.25,40.48
			c-39.14,27.09-77.74,54.95-116.98,81.89c-39.1,26.84-78.86,52.8-120.26,75.97c-5.06,2.83-10.15,5.62-15.27,8.37
			C26.86,474.19,29.49,474.33,30.3,473.9c41.15-22.12,80.66-47.15,119.36-73.3c39.15-26.45,77.51-54.03,116.22-81.11
			c19.45-13.61,39.1-26.91,58.72-40.28c19.1-13.01,37.97-26.34,57.17-39.2c15.29-10.25,30.64-20.22,46.92-28.81
			c16.16-8.54,32.6-16.56,49.08-24.48c18.26-8.78,36.46-17.56,55.84-23.65c18.57-5.84,37.14-11.64,55.68-17.59
			c4.23-1.36,8.47-2.73,12.69-4.11c0.11-0.04,1.84-0.71,1.2-1.12c-17.37-11.11-34.32-23.45-47.93-39.08
			c-11.89-13.67-20.38-29.63-26.31-46.69c-3.92-11.27-6.84-22.87-9.38-34.52c-0.21-0.94-2.63,0.07-2.89,0.61
			c-26.02,53.02-59.67,102.04-97.48,147.3c-37.3,44.65-78.72,85.82-122.78,123.79c-32.42,27.94-67.26,52.88-102.63,76.93
			c-35.25,23.97-71.14,47-107.35,69.49c-18.89,11.73-37.89,23.28-56.98,34.68c-0.29,0.17-0.58,0.34-0.87,0.51
			C26.9,474.26,29.49,474.37,30.3,473.9L30.3,473.9z"/>
	</g>
</g>
<g class="st0">
	<path class="st1" d="M303.34,135.53c2.16-4.37,8.6-5.87,12.46-2.89c2.07,1.6,3.29,4.13,3.7,6.72c0.83,5.22-1.76,10.96-6.47,13.35
		c-4.71,2.39-11.21,0.85-13.95-3.68s-0.76-11.35,4.15-13.32"/>
	<g class="st1">
		<path d="M304.06,135.41c1.93-3.75,6.82-5.16,10.45-2.94c4.07,2.49,5.13,8.13,3.97,12.45c-1.15,4.3-4.58,8.29-9.25,8.58
			c-4.14,0.26-8.58-2.03-10.08-6.03c-1.54-4.09,0.1-9.78,4.35-11.57c0.94-0.4,0.06-0.6-0.51-0.37c-4.28,1.8-6.64,6.57-5.64,11.11
			c1.07,4.86,6.01,7.59,10.73,7.49c5.12-0.1,9.56-3.33,11.39-8.09c1.85-4.8,0.96-11.73-4.03-14.33c-4.3-2.24-10.57-0.4-12.81,3.94
			C302.5,135.88,303.86,135.79,304.06,135.41L304.06,135.41z"/>
	</g>
</g>
<g class="st0">
	<path class="st1" d="M165.4,287.45c5.02-0.77,10.39,1.78,12.97,6.16c2.58,4.38,2.2,10.31-0.91,14.33c-1.08,1.4-2.49,2.59-4.16,3.16
		c-3.56,1.22-7.51-0.57-10.28-3.11c-3.63-3.33-6.01-8.52-4.58-13.23c1.43-4.71,7.68-7.74,11.67-4.85"/>
	<g class="st1">
		<path d="M165.3,287.84c4.63-0.64,9.44,1.59,12.03,5.47c2.63,3.93,2.68,9.42,0.26,13.46c-1.37,2.28-3.56,4.3-6.35,4.33
			c-2.62,0.03-5.17-1.35-7.12-3.01c-3.46-2.96-6.08-7.72-5.21-12.39c0.84-4.51,6.23-8.47,10.52-5.51c0.41,0.28,1.72-0.3,1.35-0.56
			c-3.74-2.58-8.98-0.82-11.63,2.53c-3.58,4.5-1.49,10.9,1.93,14.81c3.6,4.11,9.74,6.73,14.67,3.28c4.61-3.23,6.17-9.76,4.26-14.92
			c-2.15-5.82-8.48-9.09-14.5-8.26C164.83,287.16,164.29,287.97,165.3,287.84L165.3,287.84z"/>
	</g>
</g>
<g class="st0">
	<path class="st1" d="M490.85,280.51c1.58-1.23,3.81,0.48,4.68,2.28c1.7,3.53,1.44,7.92-0.66,11.23c-2.1,3.31-5.96,5.41-9.88,5.38
		c-1.31-0.01-2.67-0.27-3.72-1.07c-1.55-1.19-2.06-3.28-2.35-5.21c-0.67-4.48-0.61-9.36,1.91-13.13c2.52-3.76,8.19-5.64,11.75-2.84"
		/>
	<g class="st1">
		<path d="M491.32,280.77c0.91-0.61,2.08,0.37,2.67,1.03c0.73,0.81,1.15,1.81,1.46,2.84c0.58,1.96,0.62,4.05,0.14,6.03
			c-0.97,4.05-4.27,7.26-8.37,8.08c-2.08,0.42-4.64,0.3-6.05-1.5c-1.17-1.49-1.43-3.56-1.64-5.38c-0.47-3.96-0.32-8.41,2.01-11.82
			c2.26-3.31,7.06-5.08,10.5-2.51c0.43,0.32,1.75-0.3,1.14-0.76c-3.43-2.57-8.32-1.36-11.34,1.28c-3.86,3.38-4.31,9.05-3.8,13.83
			c0.25,2.35,0.61,5.17,2.59,6.74c1.77,1.41,4.37,1.41,6.5,1.02c4.81-0.89,8.89-4.48,9.97-9.31c0.6-2.65,0.34-5.74-1.02-8.13
			c-1.14-1.99-3.55-3.41-5.67-1.98C489.58,280.79,490.8,281.12,491.32,280.77L491.32,280.77z"/>
	</g>
</g>
<g class="st0">
	<path class="st1" d="M311.54,402.93c-5.17,0.21-10.15,3.16-12.84,7.58c-1.64,2.7-2.39,6.27-0.77,8.99c0.83,1.38,2.17,2.37,3.6,3.1
		c4.35,2.21,9.8,2.07,14.04-0.34c2.2-1.25,4.14-3.21,4.72-5.68c0.85-3.62-1.56-7.42-4.85-9.17s-7.2-1.83-10.89-1.41"/>
	<g class="st1">
		<path d="M311.59,402.37c-5.09,0.27-10,2.87-12.95,7.06c-1.46,2.08-2.49,4.61-2.33,7.18c0.15,2.56,1.63,4.6,3.77,5.92
			c4.42,2.73,10.22,2.88,14.88,0.68c4.47-2.11,7.77-6.75,5.42-11.66c-2.85-5.94-9.93-6.75-15.76-6.11
			c-0.83,0.09-1.09,1.24-0.11,1.13c4.67-0.51,10.13-0.25,13.33,3.7c1.36,1.68,2.2,3.87,1.79,6.05c-0.4,2.14-1.93,3.87-3.69,5.06
			c-3.86,2.61-9.12,2.91-13.34,1.02c-2.13-0.95-4.07-2.48-4.64-4.84c-0.54-2.25,0.15-4.67,1.27-6.64c2.49-4.36,7.29-7.16,12.26-7.42
			C312.33,403.45,312.58,402.31,311.59,402.37L311.59,402.37z"/>
	</g>
</g>
<g id="TenorSans_1_">
	<g>
		<path class="st2" d="M1065.67,213.78c21.16,0,41.76-1.37,62.08,0.38c20.14,1.74,33.69,17.85,34.17,36.46
			c0.53,20.4-11.35,35.2-32.07,39.95c-1.66,0.38-3.3,0.93-4.16,1.16c4.21,5.55,8.54,10.81,12.39,16.42
			c7.55,10.98,14.74,22.21,22.25,33.22c5.97,8.73,13.75,14.51,25.04,13.65c2.54,6.03,0.53,8.71-5.51,9.57
			c-13.58,1.93-25.02-1.56-33.06-13.06c-8.81-12.6-17.87-25.09-25.66-38.31c-8.26-13.98-19.41-19.75-36.19-16.13
			c0,21.24,0,42.88,0,64.92c-6.9,0-12.91,0-19.28,0C1065.67,312.52,1065.67,263.38,1065.67,213.78z M1085.13,287.21
			c10.51-0.5,20.27-0.15,29.78-1.56c14.91-2.23,26.77-16.97,27.08-32.13c0.31-15.08-10.62-28.49-26.81-30.74
			c-9.71-1.33-19.75-0.25-30.03-0.25C1085.13,243.83,1085.13,264.73,1085.13,287.21z"/>
		<path class="st2" d="M861.72,287c0.04-41.41,33.56-78.71,82.85-77.01c44.39,1.54,80.35,35.01,80.29,77.53
			c-0.06,43.15-36.51,77.43-82.7,77.74C896.69,365.58,861.59,331.43,861.72,287z M942.64,357.32c9.38-3.01,19.47-4.73,28.05-9.29
			c42.83-22.77,45.53-90.88,5.11-118.29c-30.01-20.35-68.78-10.37-85.31,21.87c-7.89,15.41-9.55,31.69-7.49,48.62
			C886.83,331.87,911.94,355.42,942.64,357.32z"/>
		<path class="st2" d="M820.93,362.22c-6.44,0-12.05,0-18.82,0c0-12.41,0-24.64,0-36.86c0-12.01,0-24.01,0-36.55
			c-29.82,0-58.92,0-89.14,0c0,24.22,0,48.39,0,73.1c-6.86,0-12.6,0-19.11,0c-0.17-2.82-0.48-5.53-0.48-8.26
			c-0.04-43.87-0.08-87.73,0.1-131.6c0.02-2.94,1.18-8.14,2.52-8.39c4.9-0.9,10.12-0.4,15.12,0.31c0.76,0.11,1.39,4.06,1.41,6.24
			c0.11,16.17,0.06,32.32,0.1,48.49c0,3.01,0.25,6.03,0.38,9.17c29.92,0,59.05,0,89.1,0c0-21.55,0-42.69,0-64.37
			c6.67,0,12.45,0,18.82,0C820.93,262.98,820.93,312.31,820.93,362.22z"/>
		<path class="st2" d="M1478.57,213.46c0.21,1.47,0.44,2.42,0.48,3.41c0.06,2.04,0.02,4.08,0.02,7.26c-25.55,0-50.78,0-76.61,0
			c0,18.44,0,35.73,0,53.88c21.6,0,43.28,0,65.4,0c0,3.57,0,6.25,0,9.92c-21.55,0-43.19,0-65.42,0c0,21.26,0,41.59,0,62.54
			c25.36,0,50.41,0,76.06,0c0,4.02,0,7.47,0,11.44c-31.48,0-63.19,0-95.49,0c0-49.29,0-98.64,0-148.44
			C1415.02,213.46,1446.67,213.46,1478.57,213.46z"/>
		<path class="st2" d="M1203.05,361.82c9.11-21.45,17.92-42.16,26.69-62.88c11.38-26.89,22.63-53.81,34.28-80.58
			c1.03-2.36,4.44-4.88,6.9-5.05c2.56-0.19,6.75,1.74,7.76,3.89c22.4,47.46,44.47,95.09,66.56,142.7c0.19,0.44,0.11,0.99,0.23,2.02
			c-6.5,0-12.95,0-19.77,0c-5.83-12.58-11.92-25.28-17.58-38.17c-1.94-4.42-4.56-5.91-9.34-5.85c-20.27,0.25-40.54,0.25-60.79,0
			c-4.79-0.06-7.34,1.33-9.13,5.97c-4.12,10.75-8.89,21.26-13.4,31.86C1212.47,362.72,1212.47,362.72,1203.05,361.82z
			 M1235.58,308.28c22.18,0,43,0,65.19,0c-11.36-24.33-22.23-47.65-34.04-72.91C1255.83,260.92,1245.91,284.11,1235.58,308.28z"/>
		<path class="st2" d="M1762.89,213.35c3.43,0,5.68,0,8.89,0c0,3.05,0,5.82,0,8.56c0,29.25,0.04,58.48,0,87.73
			c-0.04,34.42-24.16,57.3-58.63,55.56c-5.87-0.29-11.82-0.65-17.6-1.72c-26.07-4.82-41.59-20.21-42.77-46.87
			c-1.49-34.02-0.36-68.15-0.36-102.96c6.04,0,11.99,0,18.97,0c0,2.94,0,5.68,0,8.41c0,30.01-0.06,60.02,0.02,90.04
			c0.06,23.91,15.77,41.85,37.73,43.3c29.31,1.93,48.97-12.01,52.7-37.58c0.74-5.05,0.99-10.2,0.99-15.31
			C1762.95,273.08,1762.89,243.62,1762.89,213.35z"/>
		<path class="st2" d="M1550.65,224.39c-19.64,0-38,0-56.82,0c0-4.06,0-7.23,0-10.93c44.37,0,88.36,0,132.84,0c0,3.53,0,6.69,0,11
			c-18.84,0-37.43,0-56.65,0c0,46.43,0,91.75,0,137.53c-6.67,0-12.66,0-19.37,0C1550.65,316.37,1550.65,271.06,1550.65,224.39z"/>
	</g>
</g>
<g id="LogoHorae_x5F_Thick_1_">
	<g>
		<g>
			<path class="st2" d="M68.7,38.24C49.12,70.09,44.78,110.26,58.29,145.3c13.32,34.51,43.01,58.4,75.63,73.87
				c18.03,8.55,37.04,14.67,56.18,20.15c10.24,2.93,20.54,5.64,30.84,8.39c5.23,1.4,10.45,2.8,15.66,4.24
				c2.53,0.7,5.04,1.41,7.56,2.14c1.25,0.36,2.51,0.73,3.76,1.1c0.62,0.18,1.25,0.37,1.87,0.55c2.08,0.61-0.84-0.26,0.46,0.14
				c19.01,5.84,37.59,12.79,55.16,22.14c3.86,2.05,7.66,4.2,11.41,6.44c1.87,1.12,3.73,2.25,5.57,3.42
				c0.92,0.58,1.84,1.17,2.75,1.76c0.46,0.29,0.91,0.59,1.37,0.89c1.51,0.98-0.58-0.4,0.34,0.22c7.32,4.95,14.44,10.2,21.29,15.78
				c27.91,22.77,51.48,50.56,70.83,80.87c2.4,3.75,4.72,7.55,7,11.38c-0.36-0.61-0.72-1.21-1.08-1.83
				c16.69,28.25,30.54,58.73,35.69,91.36c1.52,9.61,2.23,19.32,2.16,29.05c0.01-0.71,0.02-1.42,0.02-2.12
				c-0.14,9.95-0.84,20.08-3.49,29.72c-0.59,2.16-1.28,4.28-2.09,6.37c-0.43,1.1-0.89,2.18-1.38,3.25c-0.41,0.9-0.36,0.64,0.05-0.09
				c-0.26,0.46-0.49,0.92-0.75,1.37c-1.15,2.03-2.45,3.98-3.92,5.79c-0.23,0.29-0.91,0.84-1,1.18c0.13-0.49,1.59-1.56,0.42-0.45
				c-0.96,0.9-1.91,1.78-2.94,2.61c-1.69,1.37-3.77,4.06-3.13,6.47c0.65,2.43,3.79,3.67,5.94,4.04c7.43,1.25,16.04-1.14,21.89-5.87
				c16.92-13.68,20.82-36.01,21.28-56.57c0.5-22.33-3.05-44.3-10.09-65.48c-6.6-19.86-15.89-38.74-26.43-56.79
				c-10.29-17.61-21.7-34.54-34.58-50.35c-25.01-30.68-55.41-56.99-90.23-75.95c-40.48-22.03-85.96-30.46-129.7-43.49
				c-0.62-0.18-1.25-0.37-1.87-0.56c2.2,0.67,0.1,0.03-0.46-0.15c-1.4-0.44-2.8-0.87-4.2-1.32c-2.49-0.8-4.97-1.61-7.45-2.46
				c-4.78-1.63-9.52-3.36-14.21-5.22c-9.32-3.68-18.46-7.86-27.25-12.69c-4.22-2.32-8.34-4.82-12.37-7.45
				c-1.35-0.88,1.81,1.27-0.35-0.24c-0.45-0.31-0.9-0.62-1.35-0.93c-0.89-0.62-1.79-1.26-2.67-1.9c-2.09-1.52-4.15-3.11-6.16-4.74
				c-7.51-6.11-14.4-12.98-20.38-20.6c-2.93-3.75-5.64-7.67-8.08-11.77c0.36,0.61,0.72,1.21,1.08,1.83
				c-10.55-18.02-15.61-38.82-15.39-59.63c-0.01,0.71-0.02,1.42-0.02,2.12c0.17-10,1.53-19.96,4.22-29.61
				c1.34-4.81,2.99-9.54,4.94-14.13c0.51-1.19,1.04-2.39,1.59-3.56c0.09-0.19,1.1-2.26,0.6-1.26c-0.43,0.85,0.37-0.71,0.45-0.85
				c1.3-2.49,2.7-4.92,4.17-7.31c1.24-2.02,1.81-4.21,0.03-6.14c-1.83-1.99-5.86-2.54-8.3-2.53c-4.11,0.03-8.37,0.78-12.13,2.45
				C74.07,33.68,70.46,35.39,68.7,38.24L68.7,38.24z"/>
		</g>
	</g>
	<g>
		<g>
			<path class="st2" d="M500.22,90.28c-3.63,7.14-7.48,14.17-11.54,21.08c-0.51,0.85-1.01,1.71-1.52,2.55
				c-0.25,0.43-0.51,0.84-0.77,1.27c-0.2,0.34-1.17,1.86-0.28,0.48c-1.06,1.68-2.08,3.37-3.15,5.05c-2.12,3.34-4.29,6.65-6.52,9.94
				c-8.94,13.19-18.72,25.82-29.24,37.79c-2.97,3.38-6,6.7-9.1,9.97c-1.5,1.58-3.01,3.16-4.53,4.71c-0.79,0.81-1.57,1.6-2.37,2.4
				c-0.4,0.4-0.8,0.8-1.19,1.19c-0.15,0.15-0.3,0.3-0.45,0.45c-1.07,1.06,1.08-1.06,0.01-0.01c-1.07,1.05-2.36,2.31-2.41,3.95
				c-0.04,1.28,0.35,2.35,1.25,3.27c2.18,2.19,6.53,2.38,9.1,0.77c20.07-12.58,41.16-23.53,63-32.71c2.72-1.15,5.46-2.26,8.21-3.35
				c1.23-0.49,2.48-0.97,3.71-1.45c0.69-0.26,1.38-0.52,2.07-0.79c0.19-0.07,1.58-0.6,0.33-0.13c-1.29,0.49,0.52-0.19,0.75-0.28
				c5.46-2.03,10.96-3.94,16.5-5.75c3.15-1.03,6.45-1.83,9.48-3.17c4.24-1.87,7.06-6.37,5.1-10.87c-1.35-3.1-3.19-6.03-4.81-8.99
				c-1.46-2.66-2.91-5.33-4.39-7.98c-3.28-5.92-6.68-11.79-10.49-17.39c-3.89-5.73-8.33-11.02-12.85-16.27
				c-2.31-2.69-6.58-2.94-9.62-1.29c-2.37,1.29-5.63,4.86-3.21,7.67c5.01,5.83,9.88,11.71,14.09,18.14
				c4.18,6.36,7.88,13.01,11.53,19.69c2.1,3.83,4.33,7.61,6.27,11.52c-0.2-0.44-0.42-0.87-0.62-1.31c0.29,0.65,0.51,1.26,0.57,1.97
				c-0.04-0.48-0.08-0.96-0.12-1.44c-0.01,0.33-0.18,0.55,0.07,0.06c0.33-0.64,0.89-1.62,1.5-2.09c-0.06,0.05,1.49-0.76,0.84-0.51
				c-0.11,0.04-0.39,0.14-0.47,0.21c0.03-0.04,1.9-0.64,0.85-0.35c-0.21,0.06-0.43,0.13-0.63,0.19c-0.5,0.16-0.98,0.31-1.48,0.46
				c-1.83,0.57-3.65,1.17-5.48,1.76c-3.57,1.18-7.13,2.4-10.67,3.66c-7.7,2.76-15.34,5.7-22.87,8.85
				c-14.05,5.88-27.81,12.49-41.17,19.8c-7.6,4.17-15.09,8.56-22.44,13.16c2.65,2.66,5.3,5.33,7.95,7.99
				c11.8-11.6,22.92-23.84,33.16-36.84c10.3-13.07,19.69-26.82,28.25-41.09c4.71-7.84,9.14-15.85,13.28-24
				c1.58-3.12-1.46-6.06-4.42-6.4C505.76,85.43,501.91,86.96,500.22,90.28L500.22,90.28z"/>
		</g>
	</g>
	<g>
		<g>
			<path class="st2" d="M53.07,470.39c15.58-9.2,31.01-18.64,46.41-28.14c35.05-21.62,69.82-43.73,104.04-66.66
				c34.63-23.2,69.11-47.03,101.18-73.7c42.94-35.73,83.37-74.87,120.12-116.94c37.96-43.47,72.04-90.6,99.31-141.54
				c3.33-6.22,6.54-12.5,9.64-18.83c-10.29,2.17-20.57,4.32-30.85,6.49c4.14,18.96,9.31,37.96,18.42,55.2
				c8.54,16.13,20.32,30.06,34.22,41.82c9.32,7.9,19.38,14.88,29.66,21.45c4.27-3.97,8.54-7.94,12.8-11.92
				c-18.21,5.94-36.49,11.69-54.77,17.43c-10.76,3.38-21.58,6.63-32.11,10.71c-9.98,3.87-19.66,8.47-29.33,13.06
				c-31.1,14.75-62.35,29.45-91.32,48.12c-18.87,12.17-37.3,24.99-55.78,37.74c-19.11,13.2-38.45,26.09-57.54,39.31
				c-38.01,26.31-75.5,53.37-113.61,79.53c-18.86,12.95-37.88,25.68-57.17,37.98c-0.58,0.37-1.16,0.74-1.74,1.11
				c-0.36,0.23-2.23,1.42-0.74,0.47c1.49-0.94-0.38,0.24-0.74,0.47c-0.58,0.37-1.17,0.73-1.74,1.1c-2.61,1.64-5.23,3.27-7.86,4.9
				c-4.81,2.98-9.63,5.92-14.48,8.84c-9.82,5.9-19.73,11.67-29.73,17.27c-4.91,2.75-9.86,5.46-14.83,8.13
				c-1.95,1.05-5.42,3.21-6.11,5.64c-0.62,2.18,0.88,3.73,2.86,4.4C38.01,476.12,47.07,473.61,53.07,470.39
				c40.87-21.97,80.09-46.88,118.53-72.84c38.02-25.69,75.28-52.47,112.87-78.77c18.89-13.22,37.97-26.14,57.03-39.12
				c18.55-12.64,36.88-25.58,55.52-38.07c4.71-3.16,9.44-6.28,14.2-9.38c2.38-1.54,4.76-3.08,7.15-4.6c0.6-0.39,1.21-0.78,1.82-1.16
				c0.34-0.21,2.29-1.44,0.86-0.54c-1.22,0.76,0.77-0.48,1.11-0.68c5.81-3.54,11.81-6.78,17.83-9.95
				c15.69-8.29,31.66-16.08,47.67-23.78c6.97-3.35,13.97-6.67,20.97-9.96c0.5-0.23,1.02-0.45,1.51-0.71
				c-0.36,0.18-3.09,1.39-0.64,0.3c1.29-0.57,2.57-1.15,3.87-1.71c2.75-1.18,5.51-2.32,8.29-3.42c2.61-1.03,5.25-2.01,7.9-2.95
				c1.32-0.47,2.65-0.93,3.98-1.38c0.61-0.2,2.76-1.12,0.48-0.17c-2.47,1.03,0.41-0.12,0.99-0.3c18.04-5.67,36.07-11.3,54.08-17.08
				c4.11-1.32,8.23-2.65,12.32-3.99c4.16-1.36,8.22-2.71,11.5-5.72c1.44-1.32,3.95-4.51,1.31-6.2
				c-21.67-13.86-42.51-29.81-56.83-51.51c0.33,0.51,0.67,1.01,1,1.52c-12.89-19.75-19.49-42.61-24.47-65.45
				c-0.48-2.19-4.03-3.02-5.72-3.2c-3.15-0.34-6.27,0.01-9.35,0.66c-5.56,1.18-13.07,3.51-15.78,9.03
				c-25,50.93-56.98,97.46-93.62,141.33c-18.29,21.89-37.6,42.91-57.75,63.11c-9.9,9.93-19.99,19.66-30.26,29.19
				c-1.16,1.07-2.31,2.15-3.48,3.21c1.85-1.7-0.48,0.43-0.7,0.64c-0.47,0.43-0.93,0.84-1.39,1.27c-2.78,2.53-5.57,5.05-8.37,7.56
				c-5.09,4.55-10.23,9.05-15.39,13.51c-31.49,27.14-65.32,51.36-99.67,74.71c-18.04,12.27-36.25,24.26-54.58,36.07
				c-4.36,2.82-8.73,5.61-13.11,8.4c-2.04,1.3-4.07,2.59-6.11,3.88c-1.05,0.67-2.11,1.33-3.16,2c3.91-2.49-0.18,0.12-1.11,0.7
				c-7.85,4.95-15.7,9.88-23.58,14.77C72.41,441,53.96,452.23,35.41,463.29c-0.28,0.17-0.56,0.33-0.84,0.5
				c-1.96,1.16-5.4,3.14-6.11,5.64c-0.62,2.18,0.88,3.73,2.86,4.4C37.8,476.04,47.32,473.79,53.07,470.39L53.07,470.39z"/>
		</g>
	</g>
	<g>
		<path class="st2" d="M309.83,138.76c2.1-4.24,8.35-5.7,12.1-2.81c2.01,1.55,3.2,4.01,3.59,6.53c0.81,5.07-1.71,10.64-6.28,12.97
			s-10.89,0.83-13.55-3.57c-2.66-4.39-0.74-11.02,4.03-12.94"/>
		<g>
			<path class="st2" d="M325.12,136.14c0.18-0.36,0.4-0.7,0.63-1.04c-0.41,0.55-0.82,1.11-1.22,1.66c0.39-0.51,0.84-0.97,1.33-1.38
				c-0.71,0.56-1.43,1.14-2.14,1.7c0.38-0.3,0.78-0.56,1.2-0.81c-0.97,0.55-1.94,1.1-2.91,1.65c0.29-0.16,0.57-0.29,0.87-0.42
				c-1.18,0.51-2.37,1.01-3.55,1.52c0.22-0.09,0.46-0.17,0.69-0.25c-1.36,0.43-2.71,0.85-4.07,1.29c0.23-0.07,0.47-0.14,0.71-0.19
				c-1.39,0.3-2.78,0.61-4.17,0.91c0.32-0.07,0.64-0.13,0.96-0.17c-1.28,0.16-2.55,0.31-3.84,0.47c0.32-0.04,0.64-0.06,0.97-0.07
				c-1.12,0.01-2.23,0.02-3.35,0.03c0.49,0,0.96,0.04,1.45,0.11c-0.9-0.14-1.8-0.27-2.7-0.4c0.64,0.12,1.24,0.29,1.85,0.53
				c-0.63-0.27-1.26-0.54-1.89-0.83c1.28,0.58,2.29,1.48,3.14,2.6c-0.31-0.41-0.61-0.82-0.92-1.23c1.67,2.37,2.27,5.27,1.98,8.14
				c0.06-0.51,0.13-1.02,0.18-1.52c-0.28,2.24-1.09,4.35-2.4,6.2c0.41-0.55,0.82-1.11,1.22-1.66c-0.61,0.83-1.3,1.55-2.09,2.2
				c0.71-0.56,1.43-1.14,2.14-1.7c-0.44,0.35-0.89,0.66-1.37,0.94c0.97-0.55,1.94-1.1,2.91-1.65c-0.31,0.17-0.63,0.34-0.96,0.49
				c1.18-0.51,2.37-1.01,3.55-1.52c-0.32,0.14-0.64,0.26-0.97,0.37c1.36-0.43,2.71-0.85,4.07-1.29c-0.33,0.1-0.67,0.19-1.01,0.26
				c1.39-0.3,2.78-0.61,4.17-0.91c-0.34,0.07-0.68,0.13-1.03,0.17c1.28-0.16,2.55-0.31,3.84-0.47c-0.35,0.04-0.69,0.06-1.04,0.07
				c1.12-0.01,2.23-0.02,3.35-0.03c-0.61,0-1.21-0.04-1.83-0.12c0.9,0.14,1.8,0.27,2.7,0.4c-0.95-0.16-1.86-0.41-2.75-0.77
				c0.63,0.27,1.26,0.54,1.89,0.83c-1.59-0.7-2.96-1.73-4.02-3.12c0.31,0.41,0.61,0.82,0.92,1.23c-1.33-1.86-1.82-4.08-1.56-6.35
				c-0.06,0.51-0.13,1.02-0.18,1.52c0.22-1.65,0.81-3.19,1.77-4.55c-0.41,0.55-0.82,1.11-1.22,1.66c0.44-0.58,0.93-1.11,1.5-1.57
				c-0.71,0.56-1.43,1.14-2.14,1.7c0.32-0.25,0.65-0.48,1-0.68c-0.97,0.55-1.94,1.1-2.91,1.65c0.21-0.12,0.44-0.22,0.66-0.33
				c-1.18,0.51-2.37,1.01-3.55,1.52c0.08-0.03,0.16-0.07,0.23-0.1c2.83-1.18,6.44-2.53,8.61-4.87c1.11-1.18,2.28-3.15,0.49-4.42
				c-0.63-0.27-1.26-0.54-1.89-0.83c-1.99-0.44-4.01-0.56-6.05-0.37c-4.05,0.32-8.31,1.1-12.07,2.67
				c-5.4,2.26-11.2,4.96-13.99,10.45c-0.52,1.04-0.84,2.15-1,3.29c-0.22,1.58-0.39,3.15-0.05,4.72c0.25,1.15,0.75,2.2,1.43,3.16
				c0.96,1.35,1.95,2.59,3.35,3.5c4.2,2.73,9.26,3.09,14.11,2.93c3.66-0.12,7.58-0.84,11.08-1.88c4.58-1.35,9.22-3.02,13.18-5.76
				c3.25-2.24,6.27-5.23,7.72-8.99c1.07-2.78,1.44-6.13,0.75-9.04c-0.33-1.4-0.9-2.71-1.74-3.88c-1-1.41-2.06-2.81-3.62-3.62
				c-2.48-1.29-4.91-1.89-7.71-2.06c-4.81-0.29-9.74,0.5-14.35,1.76c-4.58,1.25-9.48,3-13.34,5.85c-2.25,1.65-4.21,3.4-5.52,5.92
				c-1.01,1.96,1.18,3.14,2.63,3.58c1.45,0.36,2.9,0.49,4.38,0.39c1.85,0.05,3.69-0.12,5.52-0.49c4.02-0.75,8.15-1.82,11.79-3.72
				C321.16,139.94,323.87,138.57,325.12,136.14L325.12,136.14z"/>
		</g>
	</g>
	<g>
		<path class="st2" d="M175.86,286.31c4.88-0.75,10.09,1.73,12.6,5.98s2.14,10.01-0.88,13.92c-1.05,1.36-2.42,2.52-4.04,3.07
			c-3.46,1.18-7.29-0.55-9.98-3.02c-3.53-3.23-5.84-8.27-4.45-12.85c1.39-4.57,7.46-7.52,11.33-4.71"/>
		<g>
			<path class="st2" d="M173.65,294.47c0.33-0.05,0.66-0.08,1-0.11c-1.3,0.09-2.59,0.17-3.89,0.25c0.56-0.03,1.12-0.02,1.67,0.01
				c-1.15-0.11-2.29-0.2-3.44-0.31c0.89,0.08,1.77,0.24,2.63,0.49c-0.94-0.28-1.87-0.55-2.82-0.84c1.18,0.37,2.29,0.87,3.35,1.53
				c-0.68-0.45-1.35-0.88-2.03-1.33c1.6,1.06,2.94,2.41,3.94,4.05c-0.36-0.6-0.72-1.19-1.08-1.8c1.15,2.02,1.68,4.25,1.65,6.58
				c0.01-0.7,0.02-1.4,0.03-2.1c-0.07,1.85-0.49,3.62-1.27,5.3c0.36-0.72,0.73-1.45,1.09-2.17c-0.53,1.06-1.18,2.01-1.98,2.87
				c0.67-0.71,1.35-1.42,2.02-2.13c-0.44,0.45-0.88,0.84-1.38,1.21c0.94-0.66,1.88-1.32,2.83-1.98c-0.41,0.28-0.82,0.52-1.26,0.74
				c1.17-0.57,2.33-1.16,3.5-1.73c-0.22,0.11-0.45,0.19-0.68,0.27c1.35-0.46,2.7-0.91,4.04-1.36c-0.35,0.11-0.69,0.19-1.05,0.27
				c1.4-0.28,2.79-0.56,4.19-0.84c-0.23,0.04-0.47,0.07-0.71,0.09c1.3-0.09,2.59-0.17,3.89-0.25c-0.48,0.03-0.94,0.02-1.42-0.02
				c1.15,0.1,2.29,0.2,3.44,0.31c-0.6-0.08-1.18-0.19-1.76-0.36c0.94,0.28,1.87,0.55,2.82,0.84c-1.07-0.35-2.05-0.83-3-1.41
				c0.68,0.45,1.35,0.88,2.03,1.33c-2.02-1.33-3.68-3.08-4.95-5.13c0.36,0.6,0.72,1.19,1.08,1.8c-1.18-2.02-1.93-4.22-1.95-6.58
				c-0.01,0.7-0.02,1.4-0.03,2.1c0.03-1.31,0.27-2.58,0.83-3.78c-0.36,0.72-0.73,1.45-1.09,2.17c0.4-0.78,0.89-1.47,1.5-2.1
				c-0.67,0.71-1.35,1.42-2.02,2.13c0.42-0.41,0.84-0.78,1.32-1.12c-0.94,0.66-1.88,1.32-2.83,1.98c0.4-0.27,0.81-0.51,1.24-0.72
				c-1.17,0.57-2.33,1.16-3.5,1.73c0.35-0.16,0.7-0.3,1.06-0.43c-1.35,0.46-2.7,0.91-4.04,1.36c0.27-0.09,0.53-0.16,0.82-0.21
				c-1.4,0.28-2.79,0.56-4.19,0.84c0.37-0.07,0.73-0.12,1.1-0.15c-1.3,0.09-2.59,0.17-3.89,0.25c0.37-0.01,0.73-0.01,1.09,0.02
				c-1.15-0.11-2.29-0.2-3.44-0.31c0.36,0.05,0.71,0.12,1.07,0.21c-0.94-0.28-1.87-0.55-2.82-0.84c0.53,0.17,1.02,0.4,1.51,0.69
				c-0.68-0.45-1.35-0.88-2.03-1.33c0.08,0.06,0.16,0.11,0.23,0.17c0.99,0.92,2.14,1.51,3.44,1.75c1.55,0.56,3.18,0.81,4.85,0.72
				c3.92,0.07,8.55-0.87,12.12-2.46c2.95-1.31,6.59-3,8.35-5.85c1.03-1.67,2.2-4.58,0.05-6.06c-2.47-1.7-4.32-2.66-7.38-3.2
				c-4.68-0.83-9.69-0.29-14.25,0.94c-6.48,1.76-12.88,4.93-17.12,10.28c-2.48,3.13-3.26,6.96-2.79,10.86
				c0.41,3.41,2.4,6.78,4.62,9.31c2.98,3.41,7.14,5.46,11.48,6.52c3.48,0.85,7.36,0.72,10.87,0.25c5.09-0.68,10.41-2.4,14.71-5.22
				c4.64-3.04,8.67-7.11,10.14-12.63c0.83-3.1,0.82-6.84-0.3-9.87c-3.96-10.69-16.63-13.26-26.74-11.86
				c-3.98,0.55-8.26,1.86-11.73,3.93c-1.5,0.77-2.77,1.79-3.84,3.05c-1.01,0.86-1.71,1.93-2.11,3.23c-0.01,0.7-0.02,1.4-0.03,2.1
				c0.54,1.52,1.58,2.55,3.11,3.13C166.63,294.91,170.32,294.93,173.65,294.47L173.65,294.47z"/>
		</g>
	</g>
	<g>
		<path class="st2" d="M491.94,279.57c1.53-1.19,3.7,0.47,4.55,2.21c1.65,3.43,1.4,7.69-0.64,10.91c-2.04,3.21-5.79,5.25-9.6,5.23
			c-1.27-0.01-2.59-0.26-3.61-1.04c-1.51-1.16-2-3.19-2.28-5.06c-0.65-4.35-0.59-9.09,1.85-12.75c2.45-3.65,7.95-5.48,11.41-2.76"/>
		<g>
			<path class="st2" d="M501.83,285.23c0.08-0.05,0.16-0.11,0.23-0.16c-1.16,0.63-2.3,1.26-3.46,1.89c0.08-0.04,0.17-0.08,0.24-0.12
				c-1.34,0.48-2.69,0.95-4.03,1.43c0.09-0.03,0.17-0.05,0.25-0.08c-1.4,0.26-2.8,0.52-4.21,0.78c0.17-0.04,0.34-0.06,0.51-0.05
				c-1.31,0.03-2.62,0.06-3.94,0.09c0.09,0.01,0.17,0.02,0.26,0.03c-1.17-0.18-2.34-0.38-3.51-0.56c0.17,0.03,0.35,0.08,0.52,0.14
				c-0.97-0.39-1.94-0.78-2.9-1.17c0.37,0.16,0.68,0.34,1,0.57c-0.71-0.57-1.43-1.16-2.14-1.73c0.56,0.47,1.01,0.99,1.39,1.62
				c-0.4-0.75-0.8-1.5-1.19-2.24c0.75,1.43,1.11,2.98,1.2,4.58c-0.03-0.84-0.06-1.69-0.09-2.53c0.05,1.63-0.2,3.2-0.78,4.74
				c0.33-0.85,0.66-1.71,0.98-2.56c-0.39,0.95-0.88,1.83-1.5,2.64c0.64-0.83,1.29-1.64,1.93-2.47c-0.54,0.68-1.15,1.29-1.82,1.85
				c0.92-0.75,1.84-1.5,2.76-2.24c-0.51,0.41-1.05,0.77-1.61,1.1c1.16-0.63,2.3-1.26,3.46-1.89c-0.57,0.31-1.17,0.58-1.78,0.82
				c1.34-0.48,2.69-0.95,4.03-1.43c-0.62,0.21-1.24,0.38-1.88,0.51c1.4-0.26,2.8-0.52,4.21-0.78c-0.53,0.09-1.07,0.14-1.62,0.17
				c1.31-0.03,2.62-0.06,3.94-0.09c-0.58,0-1.15-0.03-1.72-0.12c1.17,0.18,2.34,0.38,3.51,0.56c-0.46-0.1-0.89-0.21-1.33-0.39
				c0.97,0.39,1.94,0.78,2.9,1.17c-0.32-0.16-0.6-0.32-0.89-0.52c0.71,0.57,1.43,1.16,2.14,1.73c-0.58-0.48-0.99-1.02-1.35-1.68
				c0.4,0.75,0.8,1.5,1.19,2.24c-0.98-2.1-1.18-4.58-1.27-6.87c0.03,0.84,0.06,1.69,0.09,2.53c-0.07-2.32,0.16-4.62,0.94-6.82
				c-0.33,0.85-0.66,1.71-0.98,2.56c0.41-1.04,0.91-2.01,1.57-2.9c-0.64,0.83-1.29,1.64-1.93,2.47c0.43-0.53,0.89-1.01,1.41-1.45
				c-0.92,0.75-1.84,1.5-2.76,2.24c0.46-0.37,0.93-0.69,1.45-0.98c-1.16,0.63-2.3,1.26-3.46,1.89c0.51-0.27,1.04-0.51,1.58-0.71
				c-1.34,0.48-2.69,0.95-4.03,1.43c0.37-0.12,0.73-0.21,1.11-0.3c-1.4,0.26-2.8,0.52-4.21,0.78c0.47-0.09,0.92-0.14,1.4-0.17
				c-1.31,0.03-2.62,0.06-3.94,0.09c0.47,0,0.91,0.03,1.38,0.1c-1.17-0.18-2.34-0.38-3.51-0.56c0.46,0.09,0.88,0.2,1.31,0.37
				c-0.97-0.39-1.94-0.78-2.9-1.17c0.52,0.22,0.99,0.5,1.45,0.84c1.46,0.84,3.01,1.32,4.66,1.46c1.87,0.41,3.77,0.48,5.69,0.19
				c2.16-0.17,4.22-0.67,6.22-1.5c1.96-0.57,3.78-1.44,5.47-2.61c2.34-1.7,5.39-4.16,5.67-7.27c-0.03-0.84-0.06-1.69-0.09-2.53
				c-0.56-1.77-1.68-3.09-3.33-3.97c-1.56-1.17-3.52-1.87-5.4-2.32c-3.28-0.78-6.88-1-10.21-0.51c-7.16,1.05-13.66,3.71-19.07,8.57
				c-3.13,2.81-5.22,6.78-6.18,10.83c-0.76,3.17-0.55,6.62-0.2,9.83c0.34,3.11,1.22,6.54,3.65,8.68c2.26,2,3.03,2.36,5.93,3.42
				c1.61,0.58,3.28,0.77,5.01,0.98c3.83,0.49,7.58-0.17,11.3-0.93c0.64-0.14,1.26-0.29,1.88-0.51c1.75-0.58,3.56-1.12,5.23-1.93
				c3.45-1.7,6.06-3.38,8.9-5.96c3.08-2.81,5.32-6.69,6.24-10.75c0.48-2.14,0.38-4.53,0.1-6.65c-0.28-2.08-1.2-4.03-2.31-5.8
				c-0.39-0.63-0.83-1.14-1.39-1.62c-1.96-1.69-3.47-2.76-6.05-3.48c-7.03-1.96-15.18-0.17-21.15,3.86
				c-2.34,1.57-5.2,4.28-5.67,7.27c-0.43,2.67,1.07,5.25,3.42,6.51c3.11,1.66,6.91,2.09,10.35,1.65
				C494.27,288.8,498.36,287.57,501.83,285.23L501.83,285.23z"/>
		</g>
	</g>
	<g>
		<path class="st2" d="M317.79,398.46c-5.02,0.2-9.86,3.07-12.47,7.36c-1.59,2.62-2.32,6.09-0.75,8.73c0.81,1.34,2.11,2.3,3.5,3.01
			c4.22,2.15,9.52,2.01,13.64-0.33c2.14-1.21,4.02-3.12,4.58-5.52c0.83-3.52-1.52-7.21-4.71-8.91c-3.19-1.7-6.99-1.78-10.58-1.37"/>
		<g>
			<path class="st2" d="M318.97,386.41c-5.06,0.27-10.65,1.69-15.08,4.19c-4.19,2.36-8.31,5.32-11.12,9.3
				c-2.58,3.67-4.92,8.14-4.79,12.78c0.11,3.57,0.6,5.75,2.48,8.89c1.15,1.91,3,3.64,4.9,4.82c4.1,2.53,8.65,4.32,13.52,4.59
				c1.81,0.1,3.86,0.26,5.74,0.12c1.88-0.16,3.75-0.52,5.59-0.87c2.63-0.51,5.22-1.52,7.62-2.65c5.47-2.57,9.93-6.72,12.74-12.06
				c0.99-1.88,1.6-4.18,1.61-6.31c0.03-3.73-0.7-5.79-2.34-9.05c-2.13-4.22-6.8-7.5-11.17-9.02c-5.27-1.84-10.96-2.32-16.49-1.72
				c-4.15,0.45-8.3,1.7-11.63,4.34c-1.53,1.09-2.72,2.45-3.55,4.09c-1.02,1.35-1.59,2.88-1.74,4.6c-0.1,3.25,1.11,6.43,3.9,8.33
				c3.05,2.08,6.97,3.15,10.65,2.74c1.38-0.15,2.75-0.22,4.13-0.19c-1.33-0.05-2.67-0.11-4-0.16c1.25,0.06,2.48,0.2,3.69,0.51
				c-1.2-0.31-2.41-0.62-3.61-0.93c0.96,0.26,1.87,0.6,2.76,1.06c-1.01-0.55-2.02-1.1-3.04-1.65c0.85,0.48,1.61,1.05,2.31,1.73
				c-0.77-0.77-1.52-1.53-2.29-2.29c0.75,0.78,1.36,1.63,1.84,2.6c-0.46-0.96-0.9-1.91-1.36-2.87c0.39,0.87,0.63,1.76,0.71,2.7
				c-0.09-1.06-0.17-2.11-0.25-3.17c0.03,0.75-0.05,1.45-0.23,2.18c0.28-1.04,0.55-2.09,0.84-3.13c-0.19,0.61-0.45,1.18-0.77,1.74
				c0.6-0.98,1.2-1.96,1.81-2.94c-0.41,0.64-0.87,1.2-1.41,1.74c0.88-0.87,1.77-1.75,2.66-2.61c-0.55,0.52-1.15,0.98-1.78,1.4
				c1.13-0.71,2.26-1.43,3.39-2.14c-0.78,0.49-1.58,0.88-2.43,1.22c1.33-0.51,2.67-1.01,4-1.51c-0.98,0.36-1.97,0.62-3,0.8
				c1.41-0.23,2.82-0.47,4.22-0.7c-0.92,0.13-1.84,0.18-2.76,0.17c1.33,0.05,2.67,0.11,4,0.16c-1.04-0.05-2.07-0.18-3.08-0.43
				c1.2,0.31,2.41,0.62,3.61,0.93c-1.12-0.29-2.19-0.7-3.21-1.23c1.01,0.55,2.02,1.1,3.04,1.65c-0.79-0.44-1.52-0.94-2.17-1.56
				c0.77,0.77,1.52,1.53,2.29,2.29c-0.56-0.57-0.99-1.18-1.35-1.89c0.46,0.96,0.9,1.91,1.36,2.87c-0.31-0.74-0.48-1.46-0.55-2.25
				c0.09,1.06,0.17,2.11,0.25,3.17c-0.04-0.92,0.06-1.81,0.26-2.7c-0.28,1.04-0.55,2.09-0.84,3.13c0.3-1.13,0.75-2.18,1.34-3.18
				c-0.6,0.98-1.2,1.96-1.81,2.94c0.64-1.03,1.38-1.96,2.22-2.82c-0.88,0.87-1.77,1.75-2.66,2.61c0.86-0.84,1.8-1.58,2.83-2.22
				c-1.13,0.71-2.26,1.43-3.39,2.14c0.84-0.51,1.72-0.94,2.63-1.31c-1.33,0.51-2.67,1.01-4,1.51c1.03-0.39,2.07-0.67,3.16-0.84
				c-1.41,0.23-2.82,0.47-4.22,0.7c0.54-0.08,1.08-0.14,1.63-0.17c3.99-0.21,8.49-1.84,11.63-4.34c1.53-1.09,2.72-2.45,3.55-4.09
				c1.02-1.35,1.59-2.88,1.74-4.6c0.1-3.25-1.11-6.43-3.9-8.33C326.47,387.01,322.74,386.2,318.97,386.41L318.97,386.41z"/>
		</g>
	</g>
</g>
</svg>
